<svg width="580" height="280" viewBox="0 0 580 280" fill="none" xmlns="http://www.w3.org/2000/svg">
<g clip-path="url(#clip0_210_2)">
<path d="M179.008 51.1016C178.549 51.388 178.062 51.5599 177.547 51.6172C177.031 51.6745 176.487 51.7604 175.914 51.875C175.398 51.9323 174.911 52.0469 174.453 52.2188C173.995 52.3906 173.651 52.7057 173.422 53.1641C172.849 52.5911 172.219 52.1042 171.531 51.7031C170.844 51.3021 170.156 50.8724 169.469 50.4141C168.896 50.5859 168.323 50.8151 167.75 51.1016C167.177 51.388 166.604 51.5312 166.031 51.5312C165.63 51.5312 165.229 51.388 164.828 51.1016C164.37 51.4453 163.826 51.7318 163.195 51.9609C162.622 52.1328 161.992 52.3047 161.305 52.4766C160.674 52.6484 160.073 52.8776 159.5 53.1641C158.984 53.4505 158.612 53.8802 158.383 54.4531C158.268 54.1667 157.982 54.0807 157.523 54.1953C157.122 54.3099 156.893 54.1667 156.836 53.7656C155.003 54.3958 153.141 54.9401 151.25 55.3984C149.359 55.8568 147.469 56.3438 145.578 56.8594C143.688 57.375 141.826 57.9479 139.992 58.5781C138.159 59.2083 136.383 59.9818 134.664 60.8984C134.607 60.9557 134.578 61.0417 134.578 61.1562C134.578 61.7292 134.664 62.2734 134.836 62.7891C135.008 63.3047 135.151 63.7917 135.266 64.25C134.234 67.7448 133.547 71.2969 133.203 74.9062C132.859 78.5156 132.401 82.0677 131.828 85.5625V85.9062C131.828 86.1927 131.943 86.4219 132.172 86.5938C132.401 86.7083 132.516 86.9375 132.516 87.2812L132.43 87.4531C132.143 87.625 131.943 87.8828 131.828 88.2266C131.714 88.513 131.656 88.8281 131.656 89.1719C131.656 89.401 131.714 89.7448 131.828 90.2031C130.854 93.4688 130.195 96.7917 129.852 100.172C129.565 103.552 129.193 106.932 128.734 110.312L127.961 115.984C127.846 116.328 127.732 116.672 127.617 117.016C127.56 117.302 127.531 117.617 127.531 117.961C127.531 119.794 127.646 121.599 127.875 123.375C128.161 125.094 128.247 126.87 128.133 128.703C128.648 129.505 128.906 130.279 128.906 131.023C128.906 131.31 128.878 131.596 128.82 131.883C128.82 132.169 128.792 132.456 128.734 132.742C129.479 133.487 130.339 134.003 131.312 134.289C132.344 134.633 133.26 135.148 134.062 135.836V136.18C134.062 136.753 133.977 137.297 133.805 137.812C133.633 138.385 133.49 138.958 133.375 139.531C133.26 139.99 133.117 140.648 132.945 141.508C132.831 142.367 132.659 142.94 132.43 143.227C132.143 143.628 131.714 143.971 131.141 144.258C130.625 144.602 130.109 144.773 129.594 144.773C129.422 144.773 129.164 144.688 128.82 144.516C128.534 144.344 128.305 144.201 128.133 144.086C127.846 144.086 127.474 144.229 127.016 144.516C126.557 144.802 126.099 144.945 125.641 144.945C125.411 144.945 125.211 144.917 125.039 144.859C124.867 144.859 124.667 144.802 124.438 144.688C124.208 144.115 123.865 143.599 123.406 143.141C123.005 142.74 122.518 142.339 121.945 141.938C122.003 141.135 121.859 140.534 121.516 140.133C121.172 139.732 120.828 139.216 120.484 138.586C120.37 137.784 120.255 136.867 120.141 135.836C120.083 134.805 119.654 134.06 118.852 133.602C119.138 133.201 119.281 132.656 119.281 131.969C119.281 131.682 119.224 131.367 119.109 131.023C119.052 130.68 118.88 130.422 118.594 130.25V130.078C118.536 129.792 118.622 129.591 118.852 129.477C119.138 129.305 119.281 129.076 119.281 128.789V128.445C118.88 126.612 118.68 124.693 118.68 122.688C118.68 120.797 118.737 118.935 118.852 117.102C118.966 115.211 118.966 113.32 118.852 111.43C119.195 111.143 119.453 110.685 119.625 110.055C119.854 109.424 120.026 108.737 120.141 107.992C120.255 107.247 120.312 106.531 120.312 105.844C120.37 105.099 120.427 104.497 120.484 104.039C120.771 100.773 121.229 97.5651 121.859 94.4141C122.49 91.2057 122.862 87.9401 122.977 84.6172C123.263 84.1589 123.435 83.5573 123.492 82.8125C123.549 82.0677 123.578 81.2943 123.578 80.4922C123.578 79.6328 123.635 78.8021 123.75 78C123.865 77.1979 124.094 76.5104 124.438 75.9375C124.438 74.3333 124.581 72.7292 124.867 71.125C125.154 69.4635 125.297 67.8021 125.297 66.1406C125.297 65.3385 125.211 64.5078 125.039 63.6484C124.466 63.4193 123.951 63.3047 123.492 63.3047C122.862 63.3047 122.203 63.4479 121.516 63.7344C120.885 63.9635 120.427 64.3359 120.141 64.8516C118.88 64.9089 117.648 65.1094 116.445 65.4531C115.242 65.7969 114.039 65.9688 112.836 65.9688H111.977C111.747 65.9688 111.49 65.9401 111.203 65.8828C110.802 66.0547 110.372 66.1979 109.914 66.3125C109.513 66.4271 109.341 66.7708 109.398 67.3438C107.622 67.5156 105.875 67.888 104.156 68.4609C102.495 69.0339 100.833 69.6641 99.1719 70.3516C97.5104 70.9818 95.849 71.5833 94.1875 72.1562C92.4688 72.7292 90.7214 73.1016 88.9453 73.2734C88.3151 73.5599 87.9141 74.1615 87.7422 75.0781C86.4818 74.9635 85.4219 74.6484 84.5625 74.1328C83.7031 73.6172 82.7005 73.1302 81.5547 72.6719C81.2109 71.4688 81.0391 70.3229 81.0391 69.2344C81.0391 67.8021 81.3255 66.4271 81.8984 65.1094C82.4714 63.7917 83.388 62.8177 84.6484 62.1875C84.9349 62.2448 85.1927 62.3021 85.4219 62.3594C85.651 62.3594 85.9089 62.3594 86.1953 62.3594C87.112 62.3594 88.0286 62.1875 88.9453 61.8438C89.862 61.5 90.8073 61.3281 91.7812 61.3281C92.0677 61.3281 92.3828 61.4141 92.7266 61.5859C93.1276 61.3568 93.6432 61.1849 94.2734 61.0703C94.8464 60.8984 95.3906 60.7552 95.9062 60.6406C96.4792 60.4688 96.9948 60.2396 97.4531 59.9531C97.9115 59.6667 98.1979 59.2656 98.3125 58.75C98.599 58.9792 98.9141 59.1224 99.2578 59.1797C99.6016 59.237 99.9453 59.2656 100.289 59.2656C101.034 59.2656 101.807 59.1224 102.609 58.8359C103.411 58.5495 104.042 58.0911 104.5 57.4609C104.901 57.9193 105.474 58.1484 106.219 58.1484C107.021 58.1484 107.794 57.9479 108.539 57.5469C109.341 57.0885 110.115 56.8594 110.859 56.8594C111.432 56.8594 111.862 57.0599 112.148 57.4609C112.779 56.9453 113.523 56.5443 114.383 56.2578C115.242 55.9714 116.102 55.7135 116.961 55.4844C117.878 55.2552 118.708 54.9974 119.453 54.7109C120.255 54.4245 120.885 54.0234 121.344 53.5078C121.63 53.5651 122.089 53.5938 122.719 53.5938C123.693 53.5938 124.609 53.4792 125.469 53.25C126.385 52.9635 127.302 52.7057 128.219 52.4766L130.023 52.3047C130.482 52.2474 130.883 52.1042 131.227 51.875C131.628 51.6458 132.029 51.4453 132.43 51.2734C132.831 51.1016 133.232 50.9583 133.633 50.8438C134.091 50.7292 134.635 50.7005 135.266 50.7578C136.641 50.013 138.102 49.4401 139.648 49.0391C141.195 48.638 142.771 48.2943 144.375 48.0078C145.979 47.6641 147.555 47.2917 149.102 46.8906C150.648 46.4323 152.109 45.7734 153.484 44.9141H153.742C154.888 44.9141 156.005 44.7135 157.094 44.3125C158.24 43.9115 159.299 43.3672 160.273 42.6797C160.445 42.737 160.617 42.7656 160.789 42.7656H161.391C162.995 42.7656 164.542 42.5365 166.031 42.0781C167.578 41.6198 169.182 41.3906 170.844 41.3906C171.818 41.3906 172.591 41.5339 173.164 41.8203C173.737 42.0495 174.253 42.3646 174.711 42.7656C175.169 43.1094 175.656 43.4531 176.172 43.7969C176.688 44.1406 177.346 44.3984 178.148 44.5703C178.664 45.5443 178.922 46.6042 178.922 47.75C178.922 48.8385 178.951 49.9557 179.008 51.1016ZM262.711 118.047C262.596 118.906 262.281 119.565 261.766 120.023C261.307 120.482 260.763 120.911 260.133 121.312C259.846 121.255 259.56 121.227 259.273 121.227C259.044 121.169 258.786 121.141 258.5 121.141C256.724 121.083 255.034 121.312 253.43 121.828C251.883 122.344 250.279 122.716 248.617 122.945C248.044 123.06 247.5 123.117 246.984 123.117C246.526 123.06 246.039 123.089 245.523 123.203C243.69 123.49 241.742 123.719 239.68 123.891C237.617 124.062 235.555 124.292 233.492 124.578C231.43 124.807 229.396 125.122 227.391 125.523C225.443 125.867 223.609 126.383 221.891 127.07C221.719 126.956 221.547 126.841 221.375 126.727C221.203 126.555 221.003 126.469 220.773 126.469C220.201 126.469 219.656 126.555 219.141 126.727C218.625 126.898 218.109 126.956 217.594 126.898C217.021 127.242 216.391 127.5 215.703 127.672C215.073 127.786 214.414 127.901 213.727 128.016C213.096 128.073 212.466 128.188 211.836 128.359C211.206 128.531 210.604 128.846 210.031 129.305C209.573 129.076 209 128.961 208.312 128.961C207.682 128.904 207.253 128.674 207.023 128.273C205.706 128.904 204.302 129.305 202.812 129.477C201.38 129.648 199.919 129.706 198.43 129.648C197.456 129.591 196.339 129.448 195.078 129.219C193.818 128.99 192.557 128.674 191.297 128.273C190.036 127.815 188.862 127.299 187.773 126.727C186.685 126.096 185.854 125.352 185.281 124.492C184.88 123.919 184.594 123.289 184.422 122.602C184.25 121.914 183.849 121.398 183.219 121.055C183.391 119.737 183.591 118.448 183.82 117.188C184.049 115.927 184.279 114.638 184.508 113.32C185.654 112.346 186.742 111.315 187.773 110.227C188.805 109.138 189.779 107.992 190.695 106.789C191.784 106.273 192.786 105.643 193.703 104.898C194.677 104.154 195.622 103.409 196.539 102.664C197.513 101.862 198.458 101.089 199.375 100.344C200.349 99.599 201.38 98.9401 202.469 98.3672C202.641 97.9661 202.87 97.651 203.156 97.4219C203.5 97.1354 203.844 96.8776 204.188 96.6484C204.531 96.362 204.846 96.0755 205.133 95.7891C205.419 95.4453 205.62 95.0443 205.734 94.5859C207.74 93.3828 209.487 91.8646 210.977 90.0312C212.466 88.1979 213.44 86.1354 213.898 83.8438C212.924 83.0417 211.807 82.526 210.547 82.2969C209.344 82.0104 208.083 81.8099 206.766 81.6953C205.62 81.638 204.417 81.638 203.156 81.6953C201.953 81.7526 200.721 81.724 199.461 81.6094C198.201 82.0104 196.883 82.2682 195.508 82.3828C194.19 82.4974 192.872 82.612 191.555 82.7266C190.237 82.7839 188.919 82.9557 187.602 83.2422C186.341 83.4714 185.109 83.9297 183.906 84.6172C183.677 84.6172 183.448 84.5885 183.219 84.5312C183.047 84.474 182.846 84.4453 182.617 84.4453C180.784 84.388 179.065 84.7604 177.461 85.5625C175.857 86.3073 174.281 87.0521 172.734 87.7969C172.62 88.026 172.562 88.1979 172.562 88.3125C172.562 88.6562 172.62 89 172.734 89.3438C172.906 89.6302 172.992 89.9453 172.992 90.2891C172.935 90.3464 172.906 90.4036 172.906 90.4609C172.906 90.5182 172.878 90.5755 172.82 90.6328C172.763 90.9193 172.677 91.1771 172.562 91.4062C172.505 91.6354 172.419 91.8932 172.305 92.1797C171.674 94.013 171.331 95.8177 171.273 97.5938C171.216 99.0833 171.216 100.544 171.273 101.977C171.331 103.409 171.331 104.87 171.273 106.359C171.159 108.193 170.872 109.911 170.414 111.516C170.701 112.891 170.958 114.352 171.188 115.898C171.417 117.388 171.703 118.878 172.047 120.367C172.391 121.857 172.792 123.318 173.25 124.75C173.766 126.125 174.424 127.443 175.227 128.703C175.169 128.818 175.198 128.904 175.312 128.961C175.427 129.018 175.542 129.047 175.656 129.047H176.344C176.63 129.047 176.745 129.161 176.688 129.391C176.802 129.562 176.888 129.734 176.945 129.906C177.003 130.021 177.117 130.135 177.289 130.25C177.404 130.422 177.404 130.651 177.289 130.938C177.232 132.083 176.945 133.143 176.43 134.117C175.914 135.091 175.599 136.151 175.484 137.297C174.797 137.469 174.167 137.555 173.594 137.555C172.62 137.497 171.76 137.211 171.016 136.695C170.271 136.237 169.583 135.664 168.953 134.977C168.323 134.289 167.721 133.602 167.148 132.914C166.576 132.169 165.945 131.539 165.258 131.023C164.857 129.419 164.456 127.643 164.055 125.695C163.711 123.747 163.109 122.086 162.25 120.711C162.479 120.195 162.594 119.565 162.594 118.82C162.651 117.674 162.536 116.557 162.25 115.469C162.021 114.323 161.964 113.177 162.078 112.031C162.078 111.401 162.135 110.771 162.25 110.141C162.422 109.51 162.536 108.88 162.594 108.25C162.651 107.276 162.536 106.331 162.25 105.414C162.021 104.497 161.935 103.552 161.992 102.578C162.049 102.12 162.135 101.69 162.25 101.289C162.422 100.831 162.651 100.43 162.938 100.086C162.651 99.3984 162.565 98.7396 162.68 98.1094C162.737 97.1354 162.852 96.2188 163.023 95.3594C163.195 94.5 163.31 93.6406 163.367 92.7812C163.367 92.3229 163.339 91.8932 163.281 91.4922C163.224 91.0339 163.138 90.6042 163.023 90.2031L162.25 89.9453C161.906 89.9453 161.562 90.0312 161.219 90.2031C160.932 90.375 160.674 90.5755 160.445 90.8047C160.216 91.0339 160.016 91.2344 159.844 91.4062C159.672 91.5208 159.5 91.5781 159.328 91.5781C159.214 91.5781 159.07 91.5781 158.898 91.5781C158.784 91.5208 158.669 91.4922 158.555 91.4922C158.44 91.4922 158.211 91.6068 157.867 91.8359C157.581 92.0651 157.208 92.3229 156.75 92.6094C156.349 92.8385 155.948 93.0964 155.547 93.3828C155.146 93.612 154.831 93.7552 154.602 93.8125C153.971 93.6979 153.456 93.4974 153.055 93.2109C152.711 92.8672 152.367 92.5521 152.023 92.2656C151.737 91.9219 151.422 91.6354 151.078 91.4062C150.734 91.1198 150.305 91.0052 149.789 91.0625C149.617 90.7188 149.531 90.3464 149.531 89.9453C149.474 89.5443 149.474 89.1432 149.531 88.7422V87.3672C149.932 86.6224 150.477 86.0208 151.164 85.5625C151.794 85.0469 152.482 84.6172 153.227 84.2734L155.461 83.2422C156.206 82.8984 156.893 82.4688 157.523 81.9531H158.297C159.328 82.0104 160.216 81.8099 160.961 81.3516C161.763 80.8932 162.508 80.3776 163.195 79.8047C163.883 79.1745 164.57 78.5443 165.258 77.9141C166.003 77.2839 166.805 76.7969 167.664 76.4531C168.294 76.7396 168.953 76.9974 169.641 77.2266C170.328 77.3984 171.044 77.513 171.789 77.5703C172.534 77.5703 173.307 77.4557 174.109 77.2266C174.911 76.9974 175.542 76.5677 176 75.9375C176.286 76.0521 176.516 76.138 176.688 76.1953C176.917 76.1953 177.174 76.1953 177.461 76.1953C178.32 76.2526 179.18 76.138 180.039 75.8516C180.898 75.5078 181.729 75.1068 182.531 74.6484C183.677 74.7057 184.794 74.6484 185.883 74.4766C187.029 74.2474 188.146 74.0182 189.234 73.7891C190.38 73.5599 191.497 73.3594 192.586 73.1875C193.732 72.9583 194.878 72.8724 196.023 72.9297C197.914 72.987 199.776 72.8151 201.609 72.4141C203.443 72.013 205.305 71.8698 207.195 71.9844C208.513 72.0417 209.802 72.1562 211.062 72.3281C212.38 72.4427 213.698 72.4714 215.016 72.4141C215.76 72.7578 216.419 73.0729 216.992 73.3594C217.622 73.5885 218.396 73.6458 219.312 73.5312C221.146 75.0781 222.807 76.8828 224.297 78.9453V80.4062C224.24 81.724 224.01 83.013 223.609 84.2734C223.208 85.5339 222.721 86.7943 222.148 88.0547C221.633 89.2578 221.06 90.4609 220.43 91.6641C219.799 92.8099 219.198 93.9557 218.625 95.1016C214.901 98.4818 211.177 101.833 207.453 105.156C203.729 108.479 199.891 111.688 195.938 114.781C195.823 115.354 195.651 115.87 195.422 116.328C195.25 116.786 195.135 117.273 195.078 117.789C195.078 118.076 195.107 118.305 195.164 118.477C195.565 118.591 195.909 118.82 196.195 119.164C196.539 119.451 196.654 119.852 196.539 120.367H197.312C197.599 120.367 197.742 120.482 197.742 120.711L199.117 120.797C201.294 120.911 203.471 120.854 205.648 120.625C207.826 120.396 210.003 120.138 212.18 119.852C214.414 119.565 216.62 119.307 218.797 119.078C220.974 118.792 223.151 118.62 225.328 118.562C225.844 118.391 226.388 118.247 226.961 118.133C227.534 118.018 228.049 117.789 228.508 117.445H228.766C229.167 117.445 229.453 117.56 229.625 117.789C229.854 118.018 230.169 118.161 230.57 118.219C230.857 118.219 231.143 118.161 231.43 118.047C231.773 117.932 232.117 117.846 232.461 117.789C233.263 117.56 234.094 117.417 234.953 117.359C235.87 117.302 236.758 117.216 237.617 117.102C240.94 116.815 244.234 116.643 247.5 116.586C250.766 116.471 254.031 116.042 257.297 115.297C257.583 115.698 257.984 115.984 258.5 116.156C259.016 116.271 259.56 116.414 260.133 116.586C260.706 116.701 261.221 116.844 261.68 117.016C262.195 117.188 262.539 117.531 262.711 118.047ZM256.867 121.227C256.581 121.685 256.237 122.115 255.836 122.516C255.435 122.859 255.062 123.232 254.719 123.633C254.318 123.805 253.859 123.891 253.344 123.891C252.885 123.891 252.427 123.891 251.969 123.891C251.568 123.833 251.167 123.833 250.766 123.891C250.422 123.891 250.135 124.005 249.906 124.234C249.448 124.12 249.104 123.919 248.875 123.633C248.646 123.289 248.245 123.089 247.672 123.031C247.443 122.974 247.214 122.974 246.984 123.031C246.125 122.057 245.323 121.026 244.578 119.938C243.891 118.849 243.232 117.818 242.602 116.844C242.544 114.724 242.372 112.576 242.086 110.398C242.029 109.883 241.943 109.367 241.828 108.852C241.714 108.336 241.628 107.849 241.57 107.391C241.57 106.818 241.599 106.273 241.656 105.758C241.771 105.185 241.857 104.669 241.914 104.211C242.143 102.549 242.401 100.917 242.688 99.3125C242.974 97.7083 243.232 96.0755 243.461 94.4141C243.69 92.9245 243.805 91.3776 243.805 89.7734C243.805 88.112 243.547 86.5651 243.031 85.1328L242.945 84.7031C243.06 84.2448 243.174 83.8724 243.289 83.5859C243.461 83.2422 243.576 82.8698 243.633 82.4688C243.747 81.8385 243.604 81.3802 243.203 81.0938C243.375 80.6354 243.661 80.349 244.062 80.2344C244.464 80.0625 244.693 79.7188 244.75 79.2031C244.807 78.974 244.807 78.7448 244.75 78.5156C245.208 78.3438 245.667 78.2005 246.125 78.0859C246.641 77.9141 247.128 77.8854 247.586 78C248.331 78.1146 248.99 78.3724 249.562 78.7734C250.135 79.1172 250.68 79.5182 251.195 79.9766C252.112 82.7266 252.484 85.6484 252.312 88.7422C252.141 91.7786 251.854 94.8438 251.453 97.9375C251.052 101.031 250.794 104.068 250.68 107.047C250.565 109.969 251.023 112.69 252.055 115.211L252.227 115.297C252.513 115.354 252.742 115.268 252.914 115.039C253.086 114.753 253.315 114.638 253.602 114.695C253.831 114.81 253.974 114.867 254.031 114.867C254.26 116.013 254.633 117.102 255.148 118.133C255.664 119.164 256.237 120.195 256.867 121.227ZM332.148 85.2188C332.148 86.0208 332.12 86.8229 332.062 87.625C332.005 88.4271 331.919 89.2292 331.805 90.0312C331.404 90.6042 331.003 91.1198 330.602 91.5781C330.258 91.9792 330.029 92.4948 329.914 93.125C329.284 93.5833 328.568 94.2135 327.766 95.0156C327.021 95.8177 326.706 96.6198 326.82 97.4219H325.617C324.93 98.4531 324.128 99.3411 323.211 100.086C322.294 100.831 321.32 101.547 320.289 102.234L317.281 104.211C316.307 104.841 315.391 105.586 314.531 106.445C314.073 106.503 313.701 106.589 313.414 106.703C313.128 106.818 312.755 106.846 312.297 106.789C310.521 107.935 308.659 108.938 306.711 109.797C304.82 110.656 302.901 111.516 300.953 112.375C299.062 113.177 297.172 114.036 295.281 114.953C293.391 115.87 291.586 116.93 289.867 118.133C289.695 118.076 289.466 118.047 289.18 118.047C288.664 118.047 288.148 118.133 287.633 118.305C287.117 118.419 286.602 118.477 286.086 118.477C285.857 118.477 285.542 118.448 285.141 118.391C284.797 118.333 284.539 118.247 284.367 118.133C284.081 117.961 283.823 117.703 283.594 117.359C283.365 117.016 283.193 116.643 283.078 116.242C282.964 115.784 282.878 115.354 282.82 114.953C282.763 114.552 282.734 114.208 282.734 113.922C282.734 113.578 282.763 113.206 282.82 112.805C282.878 112.404 282.964 112.031 283.078 111.688C284.74 111.573 286.401 111.143 288.062 110.398C289.781 109.654 291.414 108.938 292.961 108.25C293.362 108.078 293.677 107.878 293.906 107.648C294.193 107.362 294.479 107.133 294.766 106.961C295.052 106.732 295.367 106.531 295.711 106.359C296.055 106.188 296.484 106.102 297 106.102H297.258C300.867 104.44 304.391 102.635 307.828 100.688C311.323 98.7396 314.789 96.763 318.227 94.7578C318.398 94.2422 318.656 93.7266 319 93.2109C319.401 92.6953 319.773 92.2083 320.117 91.75C320.461 91.2344 320.776 90.7188 321.062 90.2031C321.349 89.6875 321.492 89.1719 321.492 88.6562C321.492 87.625 321.005 86.7656 320.031 86.0781H319.688C319 86.0781 318.398 85.9922 317.883 85.8203C317.367 85.5911 316.88 85.3906 316.422 85.2188C315.964 84.9896 315.448 84.8177 314.875 84.7031C314.302 84.5312 313.643 84.474 312.898 84.5312C312.612 84.3021 312.154 84.1016 311.523 83.9297C310.893 83.7578 310.378 83.6719 309.977 83.6719C307.914 83.6719 305.88 83.8151 303.875 84.1016C301.87 84.3307 299.865 84.474 297.859 84.5312C297.344 84.8177 296.857 85.0755 296.398 85.3047C295.94 85.5339 295.396 85.6484 294.766 85.6484C294.479 85.6484 294.221 85.6484 293.992 85.6484C293.763 85.5911 293.505 85.5339 293.219 85.4766C292.13 85.9349 290.898 86.3359 289.523 86.6797C288.148 86.9661 286.773 87.3385 285.398 87.7969C284.081 88.1979 282.849 88.7135 281.703 89.3438C280.557 89.974 279.669 90.8333 279.039 91.9219C279.039 92.2083 279.096 92.4661 279.211 92.6953C279.326 92.8672 279.383 93.0964 279.383 93.3828V93.7266C279.039 94.0703 278.81 94.4714 278.695 94.9297C278.581 95.3307 278.495 95.7604 278.438 96.2188C278.38 96.6198 278.294 97.0495 278.18 97.5078C278.122 97.9089 277.922 98.3099 277.578 98.7109C277.807 99.5703 277.922 100.516 277.922 101.547C277.922 102.693 277.836 103.839 277.664 104.984C277.549 106.13 277.492 107.276 277.492 108.422C277.492 109.51 277.607 110.484 277.836 111.344C277.492 111.688 277.349 112.203 277.406 112.891C277.464 113.578 277.32 114.094 276.977 114.438C276.977 114.896 277.091 115.211 277.32 115.383C277.607 115.555 277.779 115.841 277.836 116.242C277.607 117.216 277.492 118.276 277.492 119.422C277.492 121.083 277.664 122.773 278.008 124.492C278.409 126.211 278.867 127.901 279.383 129.562C280.299 129.276 281.273 129.047 282.305 128.875C283.393 128.646 284.424 128.531 285.398 128.531C285.57 128.531 285.742 128.56 285.914 128.617C286.086 128.617 286.258 128.617 286.43 128.617C286.544 129.247 286.773 129.82 287.117 130.336C287.461 130.852 287.776 131.424 288.062 132.055C287.776 132.456 287.518 132.771 287.289 133C287.117 133.286 287.031 133.659 287.031 134.117C286.229 134.174 285.57 134.375 285.055 134.719C284.539 135.12 283.966 135.549 283.336 136.008H282.992C282.018 136.008 281.216 136.18 280.586 136.523C279.956 136.924 279.24 137.354 278.438 137.812C277.75 137.526 277.062 137.383 276.375 137.383C275.63 137.383 274.885 137.526 274.141 137.812C273.224 137.411 272.479 136.781 271.906 135.922C271.333 135.12 270.846 134.203 270.445 133.172C270.044 132.198 269.672 131.195 269.328 130.164C269.042 129.133 268.698 128.188 268.297 127.328V125.953C268.297 124.635 268.182 123.375 267.953 122.172C267.781 120.911 267.695 119.622 267.695 118.305C267.695 117.789 267.724 117.245 267.781 116.672C267.896 116.099 268.068 115.555 268.297 115.039C268.182 114.523 268.125 114.036 268.125 113.578V111.945C268.125 110.227 268.182 108.508 268.297 106.789C268.469 105.07 268.555 103.352 268.555 101.633C268.555 100.372 268.469 99.0833 268.297 97.7656C268.01 97.8802 267.753 97.9948 267.523 98.1094C267.294 98.224 267.036 98.2812 266.75 98.2812C266.464 98.2812 266.177 98.2526 265.891 98.1953C265.661 98.138 265.432 98.0807 265.203 98.0234C264.63 97.5078 264.229 96.8776 264 96.1328C263.771 95.388 263.456 94.7005 263.055 94.0703C263.055 92.9818 263.227 92.0938 263.57 91.4062C263.857 90.6615 264.229 90.0026 264.688 89.4297C265.146 88.7995 265.604 88.1979 266.062 87.625C266.578 87.0521 267.008 86.3359 267.352 85.4766H267.695C268.612 85.4766 269.529 85.1901 270.445 84.6172C271.362 83.987 272.393 83.6719 273.539 83.6719C273.94 83.1562 274.484 82.7266 275.172 82.3828C275.859 81.9818 276.576 81.6667 277.32 81.4375C278.122 81.2083 278.896 81.0651 279.641 81.0078C280.443 80.8932 281.188 80.8359 281.875 80.8359C282.104 80.4349 282.448 80.1771 282.906 80.0625C283.365 79.8906 283.823 79.7474 284.281 79.6328C284.797 79.4609 285.255 79.3177 285.656 79.2031C286.115 79.0312 286.487 78.7448 286.773 78.3438C287.232 78.4583 287.661 78.5156 288.062 78.5156C288.807 78.5156 289.523 78.4297 290.211 78.2578C290.898 78.0286 291.586 77.7995 292.273 77.5703C292.961 77.2839 293.648 77.026 294.336 76.7969C295.081 76.5677 295.854 76.4531 296.656 76.4531C296.943 76.4531 297.229 76.4818 297.516 76.5391C297.802 76.5391 298.089 76.5391 298.375 76.5391C298.833 76.5391 299.091 76.3672 299.148 76.0234C299.263 75.6797 299.464 75.4219 299.75 75.25C299.922 75.3073 300.237 75.3359 300.695 75.3359C301.841 75.3359 302.958 75.25 304.047 75.0781C305.135 74.849 306.253 74.7344 307.398 74.7344C307.914 74.7344 308.43 74.763 308.945 74.8203C309.461 74.8776 309.977 75.0208 310.492 75.25C310.607 75.0781 310.721 74.9349 310.836 74.8203C310.951 74.7057 311.036 74.5625 311.094 74.3906C313.901 74.5625 316.536 75.1354 319 76.1094C321.521 77.0833 324.128 77.9427 326.82 78.6875C327.164 79.2031 327.565 79.6615 328.023 80.0625L329.484 81.2656C330 81.6667 330.487 82.0677 330.945 82.4688C331.404 82.8698 331.805 83.3568 332.148 83.9297V85.2188Z" fill="#772121"/>
<path d="M94.0586 215.82C94.0586 216.393 94.0299 216.823 93.9727 217.109C93.6862 217.224 93.457 217.396 93.2852 217.625C93.1133 217.797 92.8268 217.854 92.4258 217.797C92.3112 218.656 92.0247 219.372 91.5664 219.945C91.1081 220.518 90.6211 221.034 90.1055 221.492C89.6471 222.008 89.1888 222.523 88.7305 223.039C88.2721 223.612 87.9857 224.328 87.8711 225.188C87.0117 225.646 86.1523 226.247 85.293 226.992C84.4909 227.794 83.7747 228.339 83.1445 228.625C82.6862 228.854 82.1992 229.026 81.6836 229.141C81.168 229.312 80.6523 229.513 80.1367 229.742C78.4753 230.487 76.7565 231.26 74.9805 232.062C73.2617 232.865 71.457 233.266 69.5664 233.266H68.9648C68.7357 233.495 68.4492 233.638 68.1055 233.695C67.7617 233.81 67.418 233.896 67.0742 233.953C66.7305 234.01 66.3867 234.096 66.043 234.211C65.6992 234.326 65.4414 234.497 65.2695 234.727C64.6393 234.497 63.9518 234.383 63.207 234.383H62.6055C61.6315 234.612 60.7148 234.784 59.8555 234.898C58.9961 235.013 58.0794 235.07 57.1055 235.07C55.3867 235.07 53.668 234.956 51.9492 234.727C50.2305 234.497 48.5117 234.297 46.793 234.125C45.7044 233.266 44.8164 232.177 44.1289 230.859C43.4414 229.599 43.0977 228.253 43.0977 226.82C43.0977 225.732 43.3268 224.701 43.7852 223.727C44.2435 222.81 44.8451 221.979 45.5898 221.234H45.8477C46.3633 221.234 46.8789 221.12 47.3945 220.891C47.9674 220.661 48.5117 220.547 49.0273 220.547C49.6003 220.547 50.0586 220.776 50.4023 221.234C50.8034 221.693 51.0898 222.237 51.2617 222.867C51.4909 223.497 51.6341 224.128 51.6914 224.758C51.7487 225.445 51.7773 225.99 51.7773 226.391C52.4076 226.677 53.0664 226.849 53.7539 226.906C54.4987 226.964 55.2435 226.992 55.9883 226.992C56.7331 226.992 57.5638 226.935 58.4805 226.82C59.3971 226.763 60.3138 226.62 61.2305 226.391C62.2044 226.219 63.1211 225.99 63.9805 225.703C64.8971 225.417 65.6706 225.044 66.3008 224.586C69.4518 224.299 72.2305 223.583 74.6367 222.438C77.043 221.292 79.5924 219.945 82.2852 218.398C82.3997 217.768 82.6289 217.281 82.9727 216.938C83.3737 216.536 83.5742 215.964 83.5742 215.219C83.5742 215.104 83.5456 214.99 83.4883 214.875C83.4883 214.703 83.4883 214.56 83.4883 214.445C82.3424 213.013 81.1393 211.753 79.8789 210.664C78.6758 209.576 77.1003 208.859 75.1523 208.516C74.9232 208 74.5508 207.628 74.0352 207.398C73.5195 207.112 72.9753 206.854 72.4023 206.625C71.8294 206.396 71.2852 206.167 70.7695 205.938C70.2539 205.651 69.8815 205.193 69.6523 204.562C68.1055 204.276 66.5013 203.932 64.8398 203.531C63.2357 203.073 61.8607 202.271 60.7148 201.125C59.7982 201.068 58.9102 200.896 58.0508 200.609C57.2487 200.266 56.4466 199.951 55.6445 199.664C54.8424 199.32 54.0117 199.034 53.1523 198.805C52.293 198.518 51.4049 198.375 50.4883 198.375C50.2591 197.974 49.944 197.659 49.543 197.43C49.1419 197.201 48.6836 197 48.168 196.828C47.7096 196.656 47.2513 196.484 46.793 196.312C46.3919 196.083 46.0768 195.768 45.8477 195.367C45.6185 195.424 45.4466 195.539 45.332 195.711C45.2174 195.883 45.0169 195.969 44.7305 195.969H44.3867C44.2721 195.625 44.043 195.396 43.6992 195.281C43.3555 195.109 43.1549 194.794 43.0977 194.336C42.0664 194.279 41.1211 194.078 40.2617 193.734C39.4596 193.391 38.6862 193.018 37.9414 192.617C37.2539 192.159 36.5378 191.729 35.793 191.328C35.0482 190.927 34.2174 190.612 33.3008 190.383C32.7279 189.924 32.1836 189.438 31.668 188.922C31.2096 188.349 30.6081 188.062 29.8633 188.062C29.6914 188.062 29.3763 188.12 28.918 188.234C28.8034 187.203 28.3737 186.487 27.6289 186.086C26.8841 185.628 26.082 185.227 25.2227 184.883C24.6497 183.393 23.8763 182.076 22.9023 180.93C21.9284 179.784 20.8685 178.724 19.7227 177.75C19.8372 177.406 19.8945 177.148 19.8945 176.977C19.8945 176.404 19.7513 175.917 19.4648 175.516C19.1784 175.057 18.8633 174.685 18.5195 174.398C17.7174 171.82 17.3164 169.299 17.3164 166.836C17.3164 163.398 18.0898 160.219 19.6367 157.297C21.1263 154.318 23.5039 152.083 26.7695 150.594C26.8268 150.135 26.9701 149.734 27.1992 149.391C27.4857 149.047 27.6576 148.646 27.7148 148.188C28.2305 148.188 28.6315 148.073 28.918 147.844C29.2044 147.615 29.4622 147.385 29.6914 147.156C29.9779 146.87 30.2643 146.612 30.5508 146.383C30.8372 146.154 31.2096 146.01 31.668 145.953C33.8451 144.062 36.1654 142.544 38.6289 141.398C41.0924 140.195 43.6133 138.964 46.1914 137.703C46.707 137.474 47.1367 137.044 47.4805 136.414H47.9961C48.569 136.414 48.9987 136.299 49.2852 136.07C49.6289 135.784 50.1159 135.698 50.7461 135.812C50.9753 135.469 51.2617 135.24 51.6055 135.125C52.0065 135.01 52.3789 134.924 52.7227 134.867C53.1237 134.753 53.4961 134.609 53.8398 134.438C54.1836 134.266 54.4128 134.008 54.5273 133.664H55.1289C56.1029 133.664 57.0482 133.521 57.9648 133.234C58.8815 132.891 59.7982 132.518 60.7148 132.117H61.3164C62.4622 132.117 63.5221 131.917 64.4961 131.516C65.5273 131.057 66.6159 130.742 67.7617 130.57C68.2201 130.456 68.6784 130.427 69.1367 130.484C69.5951 130.542 70.0534 130.57 70.5117 130.57C70.7982 130.57 71.1419 130.542 71.543 130.484C71.944 130.427 72.2305 130.255 72.4023 129.969H72.5742C72.918 129.969 73.1185 130.083 73.1758 130.312C73.2331 130.542 73.4049 130.656 73.6914 130.656C74.0924 130.656 74.4935 130.599 74.8945 130.484C75.2956 130.37 75.6966 130.312 76.0977 130.312C77.8164 130.312 79.5065 130.484 81.168 130.828C82.8867 131.172 84.5768 131.487 86.2383 131.773C86.3529 132.461 86.6393 132.948 87.0977 133.234C87.6133 133.521 88.1576 133.779 88.7305 134.008V134.352C88.7305 134.81 88.8451 135.182 89.0742 135.469C88.8451 136.271 88.444 136.872 87.8711 137.273C87.2982 137.674 86.668 138.018 85.9805 138.305C86.2669 138.534 86.4388 138.849 86.4961 139.25C86.5534 139.651 86.582 140.023 86.582 140.367V141.398L86.1523 141.312C85.2357 141.312 84.7773 141.742 84.7773 142.602C84.0326 142.143 83.2018 141.857 82.2852 141.742C81.4258 141.628 80.5664 141.57 79.707 141.57C78.5612 141.57 77.3581 141.628 76.0977 141.742C74.8372 141.799 73.6055 141.771 72.4023 141.656C71.944 142.229 71.3711 142.659 70.6836 142.945C69.9961 143.174 69.3086 143.289 68.6211 143.289C67.8763 143.289 67.1602 143.146 66.4727 142.859C65.7852 142.516 65.2982 142.029 65.0117 141.398C64.7253 141.284 64.4674 141.227 64.2383 141.227H63.4648C62.5482 141.227 61.6315 141.341 60.7148 141.57C59.8555 141.742 58.9674 141.971 58.0508 142.258C57.1341 142.487 56.2174 142.745 55.3008 143.031C54.4414 143.26 53.5534 143.404 52.6367 143.461C52.293 143.919 51.8346 144.234 51.2617 144.406C50.6888 144.578 50.2305 144.893 49.8867 145.352C48.6836 145.581 47.5951 145.982 46.6211 146.555C45.6471 147.07 44.7018 147.643 43.7852 148.273L41.1211 150.078C40.2617 150.651 39.2878 151.138 38.1992 151.539C37.3971 152.398 36.6523 153.086 35.9648 153.602C35.2773 154.117 34.3893 154.576 33.3008 154.977C32.6133 155.206 32.2122 155.549 32.0977 156.008C32.0404 156.466 31.8112 156.924 31.4102 157.383C31.0664 157.784 30.6367 158.099 30.1211 158.328C29.6628 158.5 29.2617 158.815 28.918 159.273C28.6315 159.674 28.4023 160.161 28.2305 160.734C28.1159 161.25 27.9727 161.766 27.8008 162.281C27.6289 162.797 27.4284 163.312 27.1992 163.828C26.9701 164.286 26.6263 164.688 26.168 165.031C26.168 165.26 26.1393 165.49 26.082 165.719C26.082 165.948 26.082 166.148 26.082 166.32C26.082 167.122 26.168 167.953 26.3398 168.812C26.569 169.615 26.7122 170.417 26.7695 171.219C27.9154 173.224 29.2617 175.057 30.8086 176.719C32.3555 178.323 34.0169 179.812 35.793 181.188C37.569 182.562 39.4023 183.852 41.293 185.055C43.2409 186.258 45.1602 187.432 47.0508 188.578C47.7383 188.521 48.3685 188.607 48.9414 188.836C49.5143 189.008 50.1159 189.122 50.7461 189.18C51.4336 189.695 52.2357 190.096 53.1523 190.383L55.9023 191.242C56.819 191.529 57.707 191.872 58.5664 192.273C59.4258 192.617 60.1419 193.104 60.7148 193.734C61.0013 193.792 61.2591 193.878 61.4883 193.992C61.7174 194.049 61.9753 194.078 62.2617 194.078C62.6055 194.078 62.806 193.964 62.8633 193.734C65.4414 194.708 67.9622 195.797 70.4258 197C72.8893 198.146 75.4961 199.034 78.2461 199.664C79.3346 200.581 80.5378 201.383 81.8555 202.07C83.1732 202.758 84.4909 203.474 85.8086 204.219C87.1263 204.906 88.3867 205.68 89.5898 206.539C90.793 207.341 91.8529 208.315 92.7695 209.461C92.8841 210.549 93.1133 211.609 93.457 212.641C93.8581 213.615 94.0586 214.674 94.0586 215.82ZM163.152 203.531C163.152 204.104 162.98 204.591 162.637 204.992C162.35 205.336 161.978 205.651 161.52 205.938C161.118 206.224 160.689 206.482 160.23 206.711C159.829 206.94 159.457 207.227 159.113 207.57C158.884 207.799 158.712 208.086 158.598 208.43C158.54 208.716 158.397 208.917 158.168 209.031C157.824 209.318 157.452 209.49 157.051 209.547C156.65 209.604 156.22 209.69 155.762 209.805C155.361 209.862 154.96 209.977 154.559 210.148C154.158 210.263 153.814 210.521 153.527 210.922C150.835 211.208 148.171 211.581 145.535 212.039C142.957 212.497 140.293 212.727 137.543 212.727C137.027 212.727 136.454 212.784 135.824 212.898C135.251 212.956 134.707 213.013 134.191 213.07C132.988 213.185 131.785 213.271 130.582 213.328C129.436 213.385 128.262 213.414 127.059 213.414C125.397 213.414 123.736 213.357 122.074 213.242C120.413 213.07 118.78 212.812 117.176 212.469C116.775 212.182 116.316 211.953 115.801 211.781C115.285 211.609 114.741 211.438 114.168 211.266C113.652 211.094 113.165 210.893 112.707 210.664C112.249 210.435 111.905 210.091 111.676 209.633C110.816 209.576 110.043 209.404 109.355 209.117C108.725 208.831 108.124 208.516 107.551 208.172C107.035 207.771 106.491 207.37 105.918 206.969C105.345 206.568 104.686 206.224 103.941 205.938C103.368 205.135 102.767 204.362 102.137 203.617C101.564 202.815 100.848 202.156 99.9883 201.641C99.8164 200.552 99.5299 199.464 99.1289 198.375C98.7852 197.286 98.4128 196.227 98.0117 195.195C97.668 194.107 97.3815 193.018 97.1523 191.93C96.8659 190.841 96.7227 189.724 96.7227 188.578C96.7227 187.776 96.8372 186.802 97.0664 185.656C97.2956 184.51 97.582 183.365 97.9258 182.219C98.3268 181.016 98.7852 179.898 99.3008 178.867C99.8164 177.836 100.332 177.005 100.848 176.375C101.02 176.203 101.22 176.06 101.449 175.945C101.678 175.831 101.879 175.659 102.051 175.43C102.566 174.857 103.111 174.398 103.684 174.055C104.257 173.654 104.858 173.195 105.488 172.68C105.717 172.451 105.889 172.193 106.004 171.906C106.176 171.62 106.405 171.362 106.691 171.133C106.863 171.018 107.092 170.99 107.379 171.047C107.723 171.104 108.009 171.047 108.238 170.875C108.467 170.703 108.582 170.503 108.582 170.273C108.582 170.044 108.668 169.844 108.84 169.672C108.897 169.615 109.069 169.615 109.355 169.672C109.642 169.672 109.814 169.672 109.871 169.672C110.272 169.672 110.73 169.414 111.246 168.898C111.762 168.326 112.191 167.953 112.535 167.781C112.936 167.552 113.337 167.409 113.738 167.352C114.139 167.237 114.569 167.065 115.027 166.836C115.658 166.492 116.259 166.234 116.832 166.062C117.462 165.833 118.092 165.576 118.723 165.289C119.066 165.174 119.382 164.974 119.668 164.688C119.954 164.401 120.241 164.201 120.527 164.086C121.043 163.914 121.587 163.799 122.16 163.742C122.79 163.628 123.363 163.542 123.879 163.484C124.452 163.37 124.996 163.255 125.512 163.141C126.085 162.969 126.6 162.682 127.059 162.281H127.746C128.777 162.281 129.78 162.138 130.754 161.852C131.728 161.565 132.73 161.422 133.762 161.422C134.048 161.422 134.478 161.479 135.051 161.594C135.509 161.307 136.025 161.164 136.598 161.164C137.572 161.164 138.546 161.422 139.52 161.938C140.493 162.396 141.496 162.625 142.527 162.625H143.043C143.272 162.625 143.501 162.596 143.73 162.539C144.361 163.169 145.105 163.513 145.965 163.57C146.882 163.628 147.655 163.885 148.285 164.344C148.686 164.688 149.001 165.089 149.23 165.547C149.517 166.005 149.746 166.492 149.918 167.008L150.434 168.555C150.605 169.07 150.835 169.529 151.121 169.93C150.835 171.992 149.975 173.654 148.543 174.914C147.168 176.117 145.421 176.719 143.301 176.719C142.499 176.719 141.811 176.633 141.238 176.461C140.723 176.232 140.236 176.003 139.777 175.773C139.376 175.544 138.947 175.315 138.488 175.086C138.03 174.857 137.514 174.685 136.941 174.57C137.572 173.424 137.973 172.193 138.145 170.875C137.514 170.589 136.884 170.388 136.254 170.273C135.624 170.159 135.022 169.958 134.449 169.672C132.902 170.073 131.384 170.359 129.895 170.531C128.462 170.646 127.116 171.247 125.855 172.336C125.569 172.279 125.254 172.221 124.91 172.164C124.624 172.107 124.337 172.078 124.051 172.078C123.707 172.078 123.02 172.336 121.988 172.852C120.957 173.31 119.84 173.854 118.637 174.484C117.491 175.115 116.374 175.745 115.285 176.375C114.254 177.005 113.538 177.435 113.137 177.664C112.678 177.951 112.277 178.294 111.934 178.695C111.59 179.096 111.246 179.526 110.902 179.984C110.559 180.385 110.215 180.786 109.871 181.188C109.527 181.531 109.098 181.789 108.582 181.961C108.467 182.591 108.267 183.135 107.98 183.594C107.694 184.052 107.379 184.539 107.035 185.055C106.978 186.086 106.863 187.117 106.691 188.148C106.577 189.18 106.52 190.211 106.52 191.242V192.359C106.52 192.703 106.577 193.018 106.691 193.305C107.264 194.049 107.723 194.88 108.066 195.797C108.467 196.714 109.126 197.344 110.043 197.688C110.1 197.917 110.072 198.06 109.957 198.117C109.9 198.174 109.842 198.318 109.785 198.547C110.129 199.177 110.559 199.693 111.074 200.094C111.647 200.438 112.22 200.81 112.793 201.211C113.366 201.555 113.91 201.927 114.426 202.328C114.941 202.729 115.342 203.245 115.629 203.875C116.488 203.875 117.29 204.018 118.035 204.305C118.837 204.591 119.582 204.906 120.27 205.25C121.014 205.594 121.702 205.909 122.332 206.195C123.02 206.482 123.707 206.625 124.395 206.625C125.025 206.625 125.598 206.539 126.113 206.367C127.603 206.826 129.092 207.169 130.582 207.398C132.129 207.57 133.676 207.656 135.223 207.656C137.113 207.656 139.004 207.542 140.895 207.312C142.785 207.083 144.676 206.883 146.566 206.711C147.254 206.596 147.913 206.539 148.543 206.539C149.173 206.539 149.803 206.482 150.434 206.367C151.236 206.253 151.98 205.88 152.668 205.25C153.413 204.62 154.129 204.161 154.816 203.875C155.447 204.276 156.191 204.477 157.051 204.477C158.025 204.477 158.97 204.333 159.887 204.047C160.803 203.703 161.749 203.531 162.723 203.531H163.152ZM272.379 204.047C272.264 204.906 271.949 205.565 271.434 206.023C270.975 206.482 270.431 206.911 269.801 207.312C269.514 207.255 269.228 207.227 268.941 207.227C268.712 207.169 268.454 207.141 268.168 207.141C266.392 207.083 264.702 207.312 263.098 207.828C261.551 208.344 259.947 208.716 258.285 208.945C257.712 209.06 257.168 209.117 256.652 209.117C256.194 209.06 255.707 209.089 255.191 209.203C253.358 209.49 251.41 209.719 249.348 209.891C247.285 210.062 245.223 210.292 243.16 210.578C241.098 210.807 239.064 211.122 237.059 211.523C235.111 211.867 233.277 212.383 231.559 213.07C231.387 212.956 231.215 212.841 231.043 212.727C230.871 212.555 230.671 212.469 230.441 212.469C229.868 212.469 229.324 212.555 228.809 212.727C228.293 212.898 227.777 212.956 227.262 212.898C226.689 213.242 226.059 213.5 225.371 213.672C224.741 213.786 224.082 213.901 223.395 214.016C222.764 214.073 222.134 214.188 221.504 214.359C220.874 214.531 220.272 214.846 219.699 215.305C219.241 215.076 218.668 214.961 217.98 214.961C217.35 214.904 216.921 214.674 216.691 214.273C215.374 214.904 213.97 215.305 212.48 215.477C211.048 215.648 209.587 215.706 208.098 215.648C207.124 215.591 206.007 215.448 204.746 215.219C203.486 214.99 202.225 214.674 200.965 214.273C199.704 213.815 198.53 213.299 197.441 212.727C196.353 212.096 195.522 211.352 194.949 210.492C194.548 209.919 194.262 209.289 194.09 208.602C193.918 207.914 193.517 207.398 192.887 207.055C193.059 205.737 193.259 204.448 193.488 203.188C193.717 201.927 193.947 200.638 194.176 199.32C195.322 198.346 196.41 197.315 197.441 196.227C198.473 195.138 199.447 193.992 200.363 192.789C201.452 192.273 202.454 191.643 203.371 190.898C204.345 190.154 205.29 189.409 206.207 188.664C207.181 187.862 208.126 187.089 209.043 186.344C210.017 185.599 211.048 184.94 212.137 184.367C212.309 183.966 212.538 183.651 212.824 183.422C213.168 183.135 213.512 182.878 213.855 182.648C214.199 182.362 214.514 182.076 214.801 181.789C215.087 181.445 215.288 181.044 215.402 180.586C217.408 179.383 219.155 177.865 220.645 176.031C222.134 174.198 223.108 172.135 223.566 169.844C222.592 169.042 221.475 168.526 220.215 168.297C219.012 168.01 217.751 167.81 216.434 167.695C215.288 167.638 214.085 167.638 212.824 167.695C211.621 167.753 210.389 167.724 209.129 167.609C207.868 168.01 206.551 168.268 205.176 168.383C203.858 168.497 202.54 168.612 201.223 168.727C199.905 168.784 198.587 168.956 197.27 169.242C196.009 169.471 194.777 169.93 193.574 170.617C193.345 170.617 193.116 170.589 192.887 170.531C192.715 170.474 192.514 170.445 192.285 170.445C190.452 170.388 188.733 170.76 187.129 171.562C185.525 172.307 183.949 173.052 182.402 173.797C182.288 174.026 182.23 174.198 182.23 174.312C182.23 174.656 182.288 175 182.402 175.344C182.574 175.63 182.66 175.945 182.66 176.289C182.603 176.346 182.574 176.404 182.574 176.461C182.574 176.518 182.546 176.576 182.488 176.633C182.431 176.919 182.345 177.177 182.23 177.406C182.173 177.635 182.087 177.893 181.973 178.18C181.342 180.013 180.999 181.818 180.941 183.594C180.884 185.083 180.884 186.544 180.941 187.977C180.999 189.409 180.999 190.87 180.941 192.359C180.827 194.193 180.54 195.911 180.082 197.516C180.368 198.891 180.626 200.352 180.855 201.898C181.085 203.388 181.371 204.878 181.715 206.367C182.059 207.857 182.46 209.318 182.918 210.75C183.434 212.125 184.092 213.443 184.895 214.703C184.837 214.818 184.866 214.904 184.98 214.961C185.095 215.018 185.21 215.047 185.324 215.047H186.012C186.298 215.047 186.413 215.161 186.355 215.391C186.47 215.562 186.556 215.734 186.613 215.906C186.671 216.021 186.785 216.135 186.957 216.25C187.072 216.422 187.072 216.651 186.957 216.938C186.9 218.083 186.613 219.143 186.098 220.117C185.582 221.091 185.267 222.151 185.152 223.297C184.465 223.469 183.835 223.555 183.262 223.555C182.288 223.497 181.428 223.211 180.684 222.695C179.939 222.237 179.251 221.664 178.621 220.977C177.991 220.289 177.389 219.602 176.816 218.914C176.243 218.169 175.613 217.539 174.926 217.023C174.525 215.419 174.124 213.643 173.723 211.695C173.379 209.747 172.777 208.086 171.918 206.711C172.147 206.195 172.262 205.565 172.262 204.82C172.319 203.674 172.204 202.557 171.918 201.469C171.689 200.323 171.632 199.177 171.746 198.031C171.746 197.401 171.803 196.771 171.918 196.141C172.09 195.51 172.204 194.88 172.262 194.25C172.319 193.276 172.204 192.331 171.918 191.414C171.689 190.497 171.603 189.552 171.66 188.578C171.717 188.12 171.803 187.69 171.918 187.289C172.09 186.831 172.319 186.43 172.605 186.086C172.319 185.398 172.233 184.74 172.348 184.109C172.405 183.135 172.52 182.219 172.691 181.359C172.863 180.5 172.978 179.641 173.035 178.781C173.035 178.323 173.007 177.893 172.949 177.492C172.892 177.034 172.806 176.604 172.691 176.203L171.918 175.945C171.574 175.945 171.23 176.031 170.887 176.203C170.6 176.375 170.342 176.576 170.113 176.805C169.884 177.034 169.684 177.234 169.512 177.406C169.34 177.521 169.168 177.578 168.996 177.578C168.882 177.578 168.738 177.578 168.566 177.578C168.452 177.521 168.337 177.492 168.223 177.492C168.108 177.492 167.879 177.607 167.535 177.836C167.249 178.065 166.876 178.323 166.418 178.609C166.017 178.839 165.616 179.096 165.215 179.383C164.814 179.612 164.499 179.755 164.27 179.812C163.639 179.698 163.124 179.497 162.723 179.211C162.379 178.867 162.035 178.552 161.691 178.266C161.405 177.922 161.09 177.635 160.746 177.406C160.402 177.12 159.973 177.005 159.457 177.062C159.285 176.719 159.199 176.346 159.199 175.945C159.142 175.544 159.142 175.143 159.199 174.742V173.367C159.6 172.622 160.145 172.021 160.832 171.562C161.462 171.047 162.15 170.617 162.895 170.273L165.129 169.242C165.874 168.898 166.561 168.469 167.191 167.953H167.965C168.996 168.01 169.884 167.81 170.629 167.352C171.431 166.893 172.176 166.378 172.863 165.805C173.551 165.174 174.238 164.544 174.926 163.914C175.671 163.284 176.473 162.797 177.332 162.453C177.962 162.74 178.621 162.997 179.309 163.227C179.996 163.398 180.712 163.513 181.457 163.57C182.202 163.57 182.975 163.456 183.777 163.227C184.579 162.997 185.21 162.568 185.668 161.938C185.954 162.052 186.184 162.138 186.355 162.195C186.585 162.195 186.842 162.195 187.129 162.195C187.988 162.253 188.848 162.138 189.707 161.852C190.566 161.508 191.397 161.107 192.199 160.648C193.345 160.706 194.462 160.648 195.551 160.477C196.697 160.247 197.814 160.018 198.902 159.789C200.048 159.56 201.165 159.359 202.254 159.188C203.4 158.958 204.546 158.872 205.691 158.93C207.582 158.987 209.444 158.815 211.277 158.414C213.111 158.013 214.973 157.87 216.863 157.984C218.181 158.042 219.47 158.156 220.73 158.328C222.048 158.443 223.366 158.471 224.684 158.414C225.428 158.758 226.087 159.073 226.66 159.359C227.29 159.589 228.064 159.646 228.98 159.531C230.814 161.078 232.475 162.883 233.965 164.945V166.406C233.908 167.724 233.678 169.013 233.277 170.273C232.876 171.534 232.389 172.794 231.816 174.055C231.301 175.258 230.728 176.461 230.098 177.664C229.467 178.81 228.866 179.956 228.293 181.102C224.569 184.482 220.845 187.833 217.121 191.156C213.397 194.479 209.559 197.688 205.605 200.781C205.491 201.354 205.319 201.87 205.09 202.328C204.918 202.786 204.803 203.273 204.746 203.789C204.746 204.076 204.775 204.305 204.832 204.477C205.233 204.591 205.577 204.82 205.863 205.164C206.207 205.451 206.322 205.852 206.207 206.367H206.98C207.267 206.367 207.41 206.482 207.41 206.711L208.785 206.797C210.962 206.911 213.139 206.854 215.316 206.625C217.493 206.396 219.671 206.138 221.848 205.852C224.082 205.565 226.288 205.307 228.465 205.078C230.642 204.792 232.819 204.62 234.996 204.562C235.512 204.391 236.056 204.247 236.629 204.133C237.202 204.018 237.717 203.789 238.176 203.445H238.434C238.835 203.445 239.121 203.56 239.293 203.789C239.522 204.018 239.837 204.161 240.238 204.219C240.525 204.219 240.811 204.161 241.098 204.047C241.441 203.932 241.785 203.846 242.129 203.789C242.931 203.56 243.762 203.417 244.621 203.359C245.538 203.302 246.426 203.216 247.285 203.102C250.608 202.815 253.902 202.643 257.168 202.586C260.434 202.471 263.699 202.042 266.965 201.297C267.251 201.698 267.652 201.984 268.168 202.156C268.684 202.271 269.228 202.414 269.801 202.586C270.374 202.701 270.889 202.844 271.348 203.016C271.863 203.188 272.207 203.531 272.379 204.047ZM266.535 207.227C266.249 207.685 265.905 208.115 265.504 208.516C265.103 208.859 264.73 209.232 264.387 209.633C263.986 209.805 263.527 209.891 263.012 209.891C262.553 209.891 262.095 209.891 261.637 209.891C261.236 209.833 260.835 209.833 260.434 209.891C260.09 209.891 259.803 210.005 259.574 210.234C259.116 210.12 258.772 209.919 258.543 209.633C258.314 209.289 257.913 209.089 257.34 209.031C257.111 208.974 256.882 208.974 256.652 209.031C255.793 208.057 254.991 207.026 254.246 205.938C253.559 204.849 252.9 203.818 252.27 202.844C252.212 200.724 252.04 198.576 251.754 196.398C251.697 195.883 251.611 195.367 251.496 194.852C251.382 194.336 251.296 193.849 251.238 193.391C251.238 192.818 251.267 192.273 251.324 191.758C251.439 191.185 251.525 190.669 251.582 190.211C251.811 188.549 252.069 186.917 252.355 185.312C252.642 183.708 252.9 182.076 253.129 180.414C253.358 178.924 253.473 177.378 253.473 175.773C253.473 174.112 253.215 172.565 252.699 171.133L252.613 170.703C252.728 170.245 252.842 169.872 252.957 169.586C253.129 169.242 253.243 168.87 253.301 168.469C253.415 167.839 253.272 167.38 252.871 167.094C253.043 166.635 253.329 166.349 253.73 166.234C254.132 166.062 254.361 165.719 254.418 165.203C254.475 164.974 254.475 164.745 254.418 164.516C254.876 164.344 255.335 164.201 255.793 164.086C256.309 163.914 256.796 163.885 257.254 164C257.999 164.115 258.658 164.372 259.23 164.773C259.803 165.117 260.348 165.518 260.863 165.977C261.78 168.727 262.152 171.648 261.98 174.742C261.809 177.779 261.522 180.844 261.121 183.938C260.72 187.031 260.462 190.068 260.348 193.047C260.233 195.969 260.691 198.69 261.723 201.211L261.895 201.297C262.181 201.354 262.41 201.268 262.582 201.039C262.754 200.753 262.983 200.638 263.27 200.695C263.499 200.81 263.642 200.867 263.699 200.867C263.928 202.013 264.301 203.102 264.816 204.133C265.332 205.164 265.905 206.195 266.535 207.227ZM341.816 171.219C341.816 172.021 341.788 172.823 341.73 173.625C341.673 174.427 341.587 175.229 341.473 176.031C341.072 176.604 340.671 177.12 340.27 177.578C339.926 177.979 339.697 178.495 339.582 179.125C338.952 179.583 338.236 180.214 337.434 181.016C336.689 181.818 336.374 182.62 336.488 183.422H335.285C334.598 184.453 333.796 185.341 332.879 186.086C331.962 186.831 330.988 187.547 329.957 188.234L326.949 190.211C325.975 190.841 325.059 191.586 324.199 192.445C323.741 192.503 323.368 192.589 323.082 192.703C322.796 192.818 322.423 192.846 321.965 192.789C320.189 193.935 318.327 194.938 316.379 195.797C314.488 196.656 312.569 197.516 310.621 198.375C308.73 199.177 306.84 200.036 304.949 200.953C303.059 201.87 301.254 202.93 299.535 204.133C299.363 204.076 299.134 204.047 298.848 204.047C298.332 204.047 297.816 204.133 297.301 204.305C296.785 204.419 296.27 204.477 295.754 204.477C295.525 204.477 295.21 204.448 294.809 204.391C294.465 204.333 294.207 204.247 294.035 204.133C293.749 203.961 293.491 203.703 293.262 203.359C293.033 203.016 292.861 202.643 292.746 202.242C292.632 201.784 292.546 201.354 292.488 200.953C292.431 200.552 292.402 200.208 292.402 199.922C292.402 199.578 292.431 199.206 292.488 198.805C292.546 198.404 292.632 198.031 292.746 197.688C294.408 197.573 296.069 197.143 297.73 196.398C299.449 195.654 301.082 194.938 302.629 194.25C303.03 194.078 303.345 193.878 303.574 193.648C303.861 193.362 304.147 193.133 304.434 192.961C304.72 192.732 305.035 192.531 305.379 192.359C305.723 192.188 306.152 192.102 306.668 192.102H306.926C310.535 190.44 314.059 188.635 317.496 186.688C320.991 184.74 324.457 182.763 327.895 180.758C328.066 180.242 328.324 179.727 328.668 179.211C329.069 178.695 329.441 178.208 329.785 177.75C330.129 177.234 330.444 176.719 330.73 176.203C331.017 175.688 331.16 175.172 331.16 174.656C331.16 173.625 330.673 172.766 329.699 172.078H329.355C328.668 172.078 328.066 171.992 327.551 171.82C327.035 171.591 326.548 171.391 326.09 171.219C325.632 170.99 325.116 170.818 324.543 170.703C323.97 170.531 323.311 170.474 322.566 170.531C322.28 170.302 321.822 170.102 321.191 169.93C320.561 169.758 320.046 169.672 319.645 169.672C317.582 169.672 315.548 169.815 313.543 170.102C311.538 170.331 309.533 170.474 307.527 170.531C307.012 170.818 306.525 171.076 306.066 171.305C305.608 171.534 305.064 171.648 304.434 171.648C304.147 171.648 303.889 171.648 303.66 171.648C303.431 171.591 303.173 171.534 302.887 171.477C301.798 171.935 300.566 172.336 299.191 172.68C297.816 172.966 296.441 173.339 295.066 173.797C293.749 174.198 292.517 174.714 291.371 175.344C290.225 175.974 289.337 176.833 288.707 177.922C288.707 178.208 288.764 178.466 288.879 178.695C288.993 178.867 289.051 179.096 289.051 179.383V179.727C288.707 180.07 288.478 180.471 288.363 180.93C288.249 181.331 288.163 181.76 288.105 182.219C288.048 182.62 287.962 183.049 287.848 183.508C287.79 183.909 287.59 184.31 287.246 184.711C287.475 185.57 287.59 186.516 287.59 187.547C287.59 188.693 287.504 189.839 287.332 190.984C287.217 192.13 287.16 193.276 287.16 194.422C287.16 195.51 287.275 196.484 287.504 197.344C287.16 197.688 287.017 198.203 287.074 198.891C287.132 199.578 286.988 200.094 286.645 200.438C286.645 200.896 286.759 201.211 286.988 201.383C287.275 201.555 287.447 201.841 287.504 202.242C287.275 203.216 287.16 204.276 287.16 205.422C287.16 207.083 287.332 208.773 287.676 210.492C288.077 212.211 288.535 213.901 289.051 215.562C289.967 215.276 290.941 215.047 291.973 214.875C293.061 214.646 294.092 214.531 295.066 214.531C295.238 214.531 295.41 214.56 295.582 214.617C295.754 214.617 295.926 214.617 296.098 214.617C296.212 215.247 296.441 215.82 296.785 216.336C297.129 216.852 297.444 217.424 297.73 218.055C297.444 218.456 297.186 218.771 296.957 219C296.785 219.286 296.699 219.659 296.699 220.117C295.897 220.174 295.238 220.375 294.723 220.719C294.207 221.12 293.634 221.549 293.004 222.008H292.66C291.686 222.008 290.884 222.18 290.254 222.523C289.624 222.924 288.908 223.354 288.105 223.812C287.418 223.526 286.73 223.383 286.043 223.383C285.298 223.383 284.553 223.526 283.809 223.812C282.892 223.411 282.147 222.781 281.574 221.922C281.001 221.12 280.514 220.203 280.113 219.172C279.712 218.198 279.34 217.195 278.996 216.164C278.71 215.133 278.366 214.188 277.965 213.328V211.953C277.965 210.635 277.85 209.375 277.621 208.172C277.449 206.911 277.363 205.622 277.363 204.305C277.363 203.789 277.392 203.245 277.449 202.672C277.564 202.099 277.736 201.555 277.965 201.039C277.85 200.523 277.793 200.036 277.793 199.578V197.945C277.793 196.227 277.85 194.508 277.965 192.789C278.137 191.07 278.223 189.352 278.223 187.633C278.223 186.372 278.137 185.083 277.965 183.766C277.678 183.88 277.421 183.995 277.191 184.109C276.962 184.224 276.704 184.281 276.418 184.281C276.132 184.281 275.845 184.253 275.559 184.195C275.329 184.138 275.1 184.081 274.871 184.023C274.298 183.508 273.897 182.878 273.668 182.133C273.439 181.388 273.124 180.701 272.723 180.07C272.723 178.982 272.895 178.094 273.238 177.406C273.525 176.661 273.897 176.003 274.355 175.43C274.814 174.799 275.272 174.198 275.73 173.625C276.246 173.052 276.676 172.336 277.02 171.477H277.363C278.28 171.477 279.197 171.19 280.113 170.617C281.03 169.987 282.061 169.672 283.207 169.672C283.608 169.156 284.152 168.727 284.84 168.383C285.527 167.982 286.243 167.667 286.988 167.438C287.79 167.208 288.564 167.065 289.309 167.008C290.111 166.893 290.855 166.836 291.543 166.836C291.772 166.435 292.116 166.177 292.574 166.062C293.033 165.891 293.491 165.747 293.949 165.633C294.465 165.461 294.923 165.318 295.324 165.203C295.783 165.031 296.155 164.745 296.441 164.344C296.9 164.458 297.329 164.516 297.73 164.516C298.475 164.516 299.191 164.43 299.879 164.258C300.566 164.029 301.254 163.799 301.941 163.57C302.629 163.284 303.316 163.026 304.004 162.797C304.749 162.568 305.522 162.453 306.324 162.453C306.611 162.453 306.897 162.482 307.184 162.539C307.47 162.539 307.757 162.539 308.043 162.539C308.501 162.539 308.759 162.367 308.816 162.023C308.931 161.68 309.132 161.422 309.418 161.25C309.59 161.307 309.905 161.336 310.363 161.336C311.509 161.336 312.626 161.25 313.715 161.078C314.803 160.849 315.921 160.734 317.066 160.734C317.582 160.734 318.098 160.763 318.613 160.82C319.129 160.878 319.645 161.021 320.16 161.25C320.275 161.078 320.389 160.935 320.504 160.82C320.618 160.706 320.704 160.562 320.762 160.391C323.569 160.562 326.204 161.135 328.668 162.109C331.189 163.083 333.796 163.943 336.488 164.688C336.832 165.203 337.233 165.661 337.691 166.062L339.152 167.266C339.668 167.667 340.155 168.068 340.613 168.469C341.072 168.87 341.473 169.357 341.816 169.93V171.219ZM418.645 163.742C418.415 164.487 418.043 165.174 417.527 165.805L416.066 167.609C415.608 168.182 415.207 168.812 414.863 169.5C414.577 170.13 414.491 170.875 414.605 171.734C414.491 171.734 414.348 171.734 414.176 171.734C414.004 171.677 413.861 171.648 413.746 171.648C412.829 171.648 412.113 171.878 411.598 172.336C411.139 172.737 410.509 173.081 409.707 173.367C409.592 173.023 409.449 172.708 409.277 172.422C409.105 172.078 408.848 171.849 408.504 171.734C407.129 172.021 405.754 172.25 404.379 172.422C403.004 172.536 401.629 172.708 400.254 172.938C399.624 173.052 398.993 173.224 398.363 173.453C397.733 173.625 397.074 173.797 396.387 173.969C396.043 174.083 395.671 174.141 395.27 174.141C394.868 174.083 394.467 174.083 394.066 174.141C392.691 174.198 391.202 174.312 389.598 174.484C387.993 174.599 386.561 175.029 385.301 175.773C384.728 175.659 384.126 175.573 383.496 175.516C382.866 175.458 382.236 175.43 381.605 175.43C380.23 175.43 378.712 175.573 377.051 175.859C375.447 176.089 374.014 176.576 372.754 177.32C372.467 177.206 372.152 177.12 371.809 177.062C371.522 177.005 371.178 176.977 370.777 176.977C370.663 176.977 370.577 177.005 370.52 177.062C370.462 177.062 370.376 177.062 370.262 177.062C370.204 177.578 370.262 178.094 370.434 178.609C370.663 179.068 371.035 179.44 371.551 179.727C371.322 180.357 371.207 181.044 371.207 181.789C371.207 182.763 371.264 183.737 371.379 184.711C371.551 185.685 371.637 186.659 371.637 187.633C371.637 188.721 371.493 189.581 371.207 190.211C371.78 191.93 372.066 193.763 372.066 195.711C372.066 196.398 372.009 197.086 371.895 197.773C371.837 198.404 371.809 199.091 371.809 199.836C371.809 200.466 372.038 200.982 372.496 201.383C372.954 201.727 373.184 202.214 373.184 202.844C373.184 203.073 373.126 203.302 373.012 203.531C373.814 203.359 374.587 203.13 375.332 202.844C376.077 202.5 376.85 202.328 377.652 202.328C378.111 202.328 378.54 202.414 378.941 202.586C379.4 202.758 379.801 202.987 380.145 203.273C380.087 203.56 380.03 203.875 379.973 204.219C379.973 204.562 379.973 204.906 379.973 205.25C379.973 205.88 379.973 206.482 379.973 207.055C380.03 207.57 380.087 208.143 380.145 208.773C379.686 209.576 379.142 210.292 378.512 210.922C377.939 211.552 377.538 212.354 377.309 213.328C376.449 213.328 375.676 213.529 374.988 213.93C374.358 214.273 373.757 214.674 373.184 215.133C372.611 215.534 372.038 215.935 371.465 216.336C370.892 216.68 370.262 216.852 369.574 216.852C368.715 216.852 368.113 216.737 367.77 216.508C367.426 216.221 367.168 215.935 366.996 215.648C366.824 215.362 366.652 215.104 366.48 214.875C366.366 214.646 366.079 214.56 365.621 214.617C365.507 213.872 365.277 213.185 364.934 212.555C364.59 211.867 364.217 211.208 363.816 210.578C363.473 209.948 363.1 209.318 362.699 208.688C362.355 208 362.098 207.312 361.926 206.625C361.582 205.135 361.439 203.589 361.496 201.984C361.553 200.38 361.296 198.833 360.723 197.344C360.837 196.542 360.923 195.74 360.98 194.938C361.038 194.078 361.066 193.247 361.066 192.445C361.066 190.841 361.009 189.266 360.895 187.719C360.837 186.115 360.78 184.482 360.723 182.82C360.322 182.305 360.064 181.732 359.949 181.102C359.892 180.414 359.835 179.755 359.777 179.125C359.605 178.953 359.405 178.781 359.176 178.609C359.004 178.438 358.889 178.208 358.832 177.922C358.374 177.807 358.03 177.75 357.801 177.75C356.999 177.75 356.311 177.951 355.738 178.352C355.223 178.695 354.736 178.867 354.277 178.867C353.819 178.867 353.389 178.81 352.988 178.695C352.587 178.581 352.186 178.523 351.785 178.523C351.441 178.523 351.241 178.609 351.184 178.781C351.184 178.896 351.069 179.01 350.84 179.125C350.668 179.24 350.267 179.354 349.637 179.469C349.007 179.583 348.29 179.698 347.488 179.812C346.743 179.87 345.999 179.927 345.254 179.984C344.566 180.042 344.108 180.07 343.879 180.07C342.962 180.07 342.275 179.898 341.816 179.555C341.301 179.154 340.699 178.724 340.012 178.266C340.126 177.922 340.184 177.693 340.184 177.578C340.184 177.005 340.012 176.547 339.668 176.203C339.324 175.802 339.152 175.458 339.152 175.172C339.152 174.542 339.41 174.055 339.926 173.711C340.384 173.367 340.642 172.823 340.699 172.078C342.017 171.505 343.363 171.076 344.738 170.789C346.113 170.503 347.517 170.273 348.949 170.102C350.382 169.93 351.785 169.729 353.16 169.5C354.592 169.271 355.996 168.898 357.371 168.383C357.772 168.44 358.145 168.497 358.488 168.555C358.889 168.555 359.29 168.555 359.691 168.555C361.41 168.555 363.1 168.383 364.762 168.039C366.48 167.638 368.228 167.438 370.004 167.438C370.462 167.438 370.921 167.466 371.379 167.523C371.837 167.581 372.296 167.667 372.754 167.781C375.046 167.438 377.309 167.065 379.543 166.664C381.835 166.263 384.184 165.919 386.59 165.633C387.736 165.518 388.853 165.432 389.941 165.375C391.087 165.26 392.233 165.117 393.379 164.945C393.78 164.888 394.066 164.802 394.238 164.688C394.467 164.516 394.582 164.201 394.582 163.742C395.098 163.971 395.671 164.086 396.301 164.086C397.275 164.086 398.22 163.914 399.137 163.57C400.053 163.227 400.999 163.055 401.973 163.055C402.202 163.055 402.402 163.083 402.574 163.141C402.746 163.141 402.918 163.141 403.09 163.141C403.491 163.141 403.691 162.969 403.691 162.625C403.749 162.224 404.035 161.966 404.551 161.852C404.952 161.737 405.525 161.651 406.27 161.594C407.014 161.536 407.788 161.479 408.59 161.422C409.449 161.307 410.223 161.193 410.91 161.078C411.655 160.906 412.199 160.677 412.543 160.391L413.145 159.445C414.176 159.503 414.921 159.961 415.379 160.82C415.895 161.622 416.181 162.51 416.238 163.484C416.467 163.714 416.783 163.828 417.184 163.828C417.642 163.771 418.043 163.742 418.387 163.742H418.645Z" fill="#772121"/>
<path d="M568.068 43L440.642 142.688L438.594 199.908L468.539 154.234L568.068 43Z" fill="#451313"/>
<path d="M438.594 199.908L497.461 137.17L468.539 154.234L438.594 199.908Z" fill="#8F3121"/>
<path d="M568.068 43L537.26 211.709L468.539 154.234L568.068 43Z" fill="#772121"/>
<path d="M440.642 142.688L355.925 136.659L568.068 43L440.642 142.688Z" fill="#772121"/>
</g>
<defs>
<clipPath id="clip0_210_2">
<rect width="580" height="280" fill="white"/>
</clipPath>
</defs>
</svg>
