<svg width="177" height="30" viewBox="0 0 177 30" fill="none" xmlns="http://www.w3.org/2000/svg">
<path d="M26.7305 2.66406C26.6055 2.74219 26.4727 2.78906 26.332 2.80469C26.1914 2.82031 26.043 2.84375 25.8867 2.875C25.7461 2.89062 25.6133 2.92188 25.4883 2.96875C25.3633 3.01562 25.2695 3.10156 25.207 3.22656C25.0508 3.07031 24.8789 2.9375 24.6914 2.82812C24.5039 2.71875 24.3164 2.60156 24.1289 2.47656C23.9727 2.52344 23.8164 2.58594 23.6602 2.66406C23.5039 2.74219 23.3477 2.78125 23.1914 2.78125C23.082 2.78125 22.9727 2.74219 22.8633 2.66406C22.7383 2.75781 22.5898 2.83594 22.418 2.89844C22.2617 2.94531 22.0898 2.99219 21.9023 3.03906C21.7305 3.08594 21.5664 3.14844 21.4102 3.22656C21.2695 3.30469 21.168 3.42188 21.1055 3.57812C21.0742 3.5 20.9961 3.47656 20.8711 3.50781C20.7617 3.53906 20.6992 3.5 20.6836 3.39062C20.1836 3.5625 19.6758 3.71094 19.1602 3.83594C18.6445 3.96094 18.1289 4.09375 17.6133 4.23438C17.0977 4.375 16.5898 4.53125 16.0898 4.70312C15.5898 4.875 15.1055 5.08594 14.6367 5.33594C14.6211 5.35156 14.6133 5.375 14.6133 5.40625C14.6133 5.5625 14.6367 5.71094 14.6836 5.85156C14.7305 5.99219 14.7695 6.125 14.8008 6.25C14.5195 7.20312 14.332 8.17188 14.2383 9.15625C14.1445 10.1406 14.0195 11.1094 13.8633 12.0625V12.1562C13.8633 12.2344 13.8945 12.2969 13.957 12.3438C14.0195 12.375 14.0508 12.4375 14.0508 12.5312L14.0273 12.5781C13.9492 12.625 13.8945 12.6953 13.8633 12.7891C13.832 12.8672 13.8164 12.9531 13.8164 13.0469C13.8164 13.1094 13.832 13.2031 13.8633 13.3281C13.5977 14.2188 13.418 15.125 13.3242 16.0469C13.2461 16.9688 13.1445 17.8906 13.0195 18.8125L12.8086 20.3594C12.7773 20.4531 12.7461 20.5469 12.7148 20.6406C12.6992 20.7188 12.6914 20.8047 12.6914 20.8984C12.6914 21.3984 12.7227 21.8906 12.7852 22.375C12.8633 22.8438 12.8867 23.3281 12.8555 23.8281C12.9961 24.0469 13.0664 24.2578 13.0664 24.4609C13.0664 24.5391 13.0586 24.6172 13.043 24.6953C13.043 24.7734 13.0352 24.8516 13.0195 24.9297C13.2227 25.1328 13.457 25.2734 13.7227 25.3516C14.0039 25.4453 14.2539 25.5859 14.4727 25.7734V25.8672C14.4727 26.0234 14.4492 26.1719 14.4023 26.3125C14.3555 26.4688 14.3164 26.625 14.2852 26.7812C14.2539 26.9062 14.2148 27.0859 14.168 27.3203C14.1367 27.5547 14.0898 27.7109 14.0273 27.7891C13.9492 27.8984 13.832 27.9922 13.6758 28.0703C13.5352 28.1641 13.3945 28.2109 13.2539 28.2109C13.207 28.2109 13.1367 28.1875 13.043 28.1406C12.9648 28.0938 12.9023 28.0547 12.8555 28.0234C12.7773 28.0234 12.6758 28.0625 12.5508 28.1406C12.4258 28.2188 12.3008 28.2578 12.1758 28.2578C12.1133 28.2578 12.0586 28.25 12.0117 28.2344C11.9648 28.2344 11.9102 28.2188 11.8477 28.1875C11.7852 28.0312 11.6914 27.8906 11.5664 27.7656C11.457 27.6562 11.3242 27.5469 11.168 27.4375C11.1836 27.2188 11.1445 27.0547 11.0508 26.9453C10.957 26.8359 10.8633 26.6953 10.7695 26.5234C10.7383 26.3047 10.707 26.0547 10.6758 25.7734C10.6602 25.4922 10.543 25.2891 10.3242 25.1641C10.4023 25.0547 10.4414 24.9062 10.4414 24.7188C10.4414 24.6406 10.4258 24.5547 10.3945 24.4609C10.3789 24.3672 10.332 24.2969 10.2539 24.25V24.2031C10.2383 24.125 10.2617 24.0703 10.3242 24.0391C10.4023 23.9922 10.4414 23.9297 10.4414 23.8516V23.7578C10.332 23.2578 10.2773 22.7344 10.2773 22.1875C10.2773 21.6719 10.293 21.1641 10.3242 20.6641C10.3555 20.1484 10.3555 19.6328 10.3242 19.1172C10.418 19.0391 10.4883 18.9141 10.5352 18.7422C10.5977 18.5703 10.6445 18.3828 10.6758 18.1797C10.707 17.9766 10.7227 17.7812 10.7227 17.5938C10.7383 17.3906 10.7539 17.2266 10.7695 17.1016C10.8477 16.2109 10.9727 15.3359 11.1445 14.4766C11.3164 13.6016 11.418 12.7109 11.4492 11.8047C11.5273 11.6797 11.5742 11.5156 11.5898 11.3125C11.6055 11.1094 11.6133 10.8984 11.6133 10.6797C11.6133 10.4453 11.6289 10.2188 11.6602 10C11.6914 9.78125 11.7539 9.59375 11.8477 9.4375C11.8477 9 11.8867 8.5625 11.9648 8.125C12.043 7.67188 12.082 7.21875 12.082 6.76562C12.082 6.54687 12.0586 6.32031 12.0117 6.08594C11.8555 6.02344 11.7148 5.99219 11.5898 5.99219C11.418 5.99219 11.2383 6.03125 11.0508 6.10938C10.8789 6.17187 10.7539 6.27344 10.6758 6.41406C10.332 6.42969 9.99609 6.48438 9.66797 6.57812C9.33984 6.67188 9.01172 6.71875 8.68359 6.71875H8.44922C8.38672 6.71875 8.31641 6.71094 8.23828 6.69531C8.12891 6.74219 8.01172 6.78125 7.88672 6.8125C7.77734 6.84375 7.73047 6.9375 7.74609 7.09375C7.26172 7.14062 6.78516 7.24219 6.31641 7.39844C5.86328 7.55469 5.41016 7.72656 4.95703 7.91406C4.50391 8.08594 4.05078 8.25 3.59766 8.40625C3.12891 8.5625 2.65234 8.66406 2.16797 8.71094C1.99609 8.78906 1.88672 8.95312 1.83984 9.20312C1.49609 9.17188 1.20703 9.08594 0.972656 8.94531C0.738281 8.80469 0.464844 8.67188 0.152344 8.54688C0.0585938 8.21875 0.0117188 7.90625 0.0117188 7.60938C0.0117188 7.21875 0.0898438 6.84375 0.246094 6.48438C0.402344 6.125 0.652344 5.85938 0.996094 5.6875C1.07422 5.70312 1.14453 5.71875 1.20703 5.73438C1.26953 5.73438 1.33984 5.73438 1.41797 5.73438C1.66797 5.73438 1.91797 5.6875 2.16797 5.59375C2.41797 5.5 2.67578 5.45312 2.94141 5.45312C3.01953 5.45312 3.10547 5.47656 3.19922 5.52344C3.30859 5.46094 3.44922 5.41406 3.62109 5.38281C3.77734 5.33594 3.92578 5.29688 4.06641 5.26562C4.22266 5.21875 4.36328 5.15625 4.48828 5.07812C4.61328 5 4.69141 4.89062 4.72266 4.75C4.80078 4.8125 4.88672 4.85156 4.98047 4.86719C5.07422 4.88281 5.16797 4.89062 5.26172 4.89062C5.46484 4.89062 5.67578 4.85156 5.89453 4.77344C6.11328 4.69531 6.28516 4.57031 6.41016 4.39844C6.51953 4.52344 6.67578 4.58594 6.87891 4.58594C7.09766 4.58594 7.30859 4.53125 7.51172 4.42188C7.73047 4.29687 7.94141 4.23438 8.14453 4.23438C8.30078 4.23438 8.41797 4.28906 8.49609 4.39844C8.66797 4.25781 8.87109 4.14844 9.10547 4.07031C9.33984 3.99219 9.57422 3.92187 9.80859 3.85938C10.0586 3.79688 10.2852 3.72656 10.4883 3.64844C10.707 3.57031 10.8789 3.46094 11.0039 3.32031C11.082 3.33594 11.207 3.34375 11.3789 3.34375C11.6445 3.34375 11.8945 3.3125 12.1289 3.25C12.3789 3.17187 12.6289 3.10156 12.8789 3.03906L13.3711 2.99219C13.4961 2.97656 13.6055 2.9375 13.6992 2.875C13.8086 2.8125 13.918 2.75781 14.0273 2.71094C14.1367 2.66406 14.2461 2.625 14.3555 2.59375C14.4805 2.5625 14.6289 2.55469 14.8008 2.57031C15.1758 2.36719 15.5742 2.21094 15.9961 2.10156C16.418 1.99219 16.8477 1.89844 17.2852 1.82031C17.7227 1.72656 18.1523 1.625 18.5742 1.51562C18.9961 1.39062 19.3945 1.21094 19.7695 0.976562H19.8398C20.1523 0.976562 20.457 0.921875 20.7539 0.8125C21.0664 0.703125 21.3555 0.554688 21.6211 0.367188C21.668 0.382813 21.7148 0.390625 21.7617 0.390625H21.9258C22.3633 0.390625 22.7852 0.328125 23.1914 0.203125C23.6133 0.078125 24.0508 0.015625 24.5039 0.015625C24.7695 0.015625 24.9805 0.0546875 25.1367 0.132812C25.293 0.195313 25.4336 0.28125 25.5586 0.390625C25.6836 0.484375 25.8164 0.578125 25.957 0.671875C26.0977 0.765625 26.2773 0.835938 26.4961 0.882812C26.6367 1.14844 26.707 1.4375 26.707 1.75C26.707 2.04687 26.7148 2.35156 26.7305 2.66406ZM49.5586 20.9219C49.5273 21.1562 49.4414 21.3359 49.3008 21.4609C49.1758 21.5859 49.0273 21.7031 48.8555 21.8125C48.7773 21.7969 48.6992 21.7891 48.6211 21.7891C48.5586 21.7734 48.4883 21.7656 48.4102 21.7656C47.9258 21.75 47.4648 21.8125 47.0273 21.9531C46.6055 22.0938 46.168 22.1953 45.7148 22.2578C45.5586 22.2891 45.4102 22.3047 45.2695 22.3047C45.1445 22.2891 45.0117 22.2969 44.8711 22.3281C44.3711 22.4062 43.8398 22.4688 43.2773 22.5156C42.7148 22.5625 42.1523 22.625 41.5898 22.7031C41.0273 22.7656 40.4727 22.8516 39.9258 22.9609C39.3945 23.0547 38.8945 23.1953 38.4258 23.3828C38.3789 23.3516 38.332 23.3203 38.2852 23.2891C38.2383 23.2422 38.1836 23.2188 38.1211 23.2188C37.9648 23.2188 37.8164 23.2422 37.6758 23.2891C37.5352 23.3359 37.3945 23.3516 37.2539 23.3359C37.0977 23.4297 36.9258 23.5 36.7383 23.5469C36.5664 23.5781 36.3867 23.6094 36.1992 23.6406C36.0273 23.6562 35.8555 23.6875 35.6836 23.7344C35.5117 23.7812 35.3477 23.8672 35.1914 23.9922C35.0664 23.9297 34.9102 23.8984 34.7227 23.8984C34.5508 23.8828 34.4336 23.8203 34.3711 23.7109C34.0117 23.8828 33.6289 23.9922 33.2227 24.0391C32.832 24.0859 32.4336 24.1016 32.0273 24.0859C31.7617 24.0703 31.457 24.0312 31.1133 23.9688C30.7695 23.9062 30.4258 23.8203 30.082 23.7109C29.7383 23.5859 29.418 23.4453 29.1211 23.2891C28.8242 23.1172 28.5977 22.9141 28.4414 22.6797C28.332 22.5234 28.2539 22.3516 28.207 22.1641C28.1602 21.9766 28.0508 21.8359 27.8789 21.7422C27.9258 21.3828 27.9805 21.0312 28.043 20.6875C28.1055 20.3438 28.168 19.9922 28.2305 19.6328C28.543 19.3672 28.8398 19.0859 29.1211 18.7891C29.4023 18.4922 29.668 18.1797 29.918 17.8516C30.2148 17.7109 30.4883 17.5391 30.7383 17.3359C31.0039 17.1328 31.2617 16.9297 31.5117 16.7266C31.7773 16.5078 32.0352 16.2969 32.2852 16.0938C32.5508 15.8906 32.832 15.7109 33.1289 15.5547C33.1758 15.4453 33.2383 15.3594 33.3164 15.2969C33.4102 15.2188 33.5039 15.1484 33.5977 15.0859C33.6914 15.0078 33.7773 14.9297 33.8555 14.8516C33.9336 14.7578 33.9883 14.6484 34.0195 14.5234C34.5664 14.1953 35.043 13.7812 35.4492 13.2812C35.8555 12.7812 36.1211 12.2188 36.2461 11.5938C35.9805 11.375 35.6758 11.2344 35.332 11.1719C35.0039 11.0938 34.6602 11.0391 34.3008 11.0078C33.9883 10.9922 33.6602 10.9922 33.3164 11.0078C32.9883 11.0234 32.6523 11.0156 32.3086 10.9844C31.9648 11.0938 31.6055 11.1641 31.2305 11.1953C30.8711 11.2266 30.5117 11.2578 30.1523 11.2891C29.793 11.3047 29.4336 11.3516 29.0742 11.4297C28.7305 11.4922 28.3945 11.6172 28.0664 11.8047C28.0039 11.8047 27.9414 11.7969 27.8789 11.7812C27.832 11.7656 27.7773 11.7578 27.7148 11.7578C27.2148 11.7422 26.7461 11.8438 26.3086 12.0625C25.8711 12.2656 25.4414 12.4688 25.0195 12.6719C24.9883 12.7344 24.9727 12.7812 24.9727 12.8125C24.9727 12.9062 24.9883 13 25.0195 13.0938C25.0664 13.1719 25.0898 13.2578 25.0898 13.3516C25.0742 13.3672 25.0664 13.3828 25.0664 13.3984C25.0664 13.4141 25.0586 13.4297 25.043 13.4453C25.0273 13.5234 25.0039 13.5938 24.9727 13.6562C24.957 13.7188 24.9336 13.7891 24.9023 13.8672C24.7305 14.3672 24.6367 14.8594 24.6211 15.3438C24.6055 15.75 24.6055 16.1484 24.6211 16.5391C24.6367 16.9297 24.6367 17.3281 24.6211 17.7344C24.5898 18.2344 24.5117 18.7031 24.3867 19.1406C24.4648 19.5156 24.5352 19.9141 24.5977 20.3359C24.6602 20.7422 24.7383 21.1484 24.832 21.5547C24.9258 21.9609 25.0352 22.3594 25.1602 22.75C25.3008 23.125 25.4805 23.4844 25.6992 23.8281C25.6836 23.8594 25.6914 23.8828 25.7227 23.8984C25.7539 23.9141 25.7852 23.9219 25.8164 23.9219H26.0039C26.082 23.9219 26.1133 23.9531 26.0977 24.0156C26.1289 24.0625 26.1523 24.1094 26.168 24.1562C26.1836 24.1875 26.2148 24.2188 26.2617 24.25C26.293 24.2969 26.293 24.3594 26.2617 24.4375C26.2461 24.75 26.168 25.0391 26.0273 25.3047C25.8867 25.5703 25.8008 25.8594 25.7695 26.1719C25.582 26.2188 25.4102 26.2422 25.2539 26.2422C24.9883 26.2266 24.7539 26.1484 24.5508 26.0078C24.3477 25.8828 24.1602 25.7266 23.9883 25.5391C23.8164 25.3516 23.6523 25.1641 23.4961 24.9766C23.3398 24.7734 23.168 24.6016 22.9805 24.4609C22.8711 24.0234 22.7617 23.5391 22.6523 23.0078C22.5586 22.4766 22.3945 22.0234 22.1602 21.6484C22.2227 21.5078 22.2539 21.3359 22.2539 21.1328C22.2695 20.8203 22.2383 20.5156 22.1602 20.2188C22.0977 19.9062 22.082 19.5938 22.1133 19.2812C22.1133 19.1094 22.1289 18.9375 22.1602 18.7656C22.207 18.5938 22.2383 18.4219 22.2539 18.25C22.2695 17.9844 22.2383 17.7266 22.1602 17.4766C22.0977 17.2266 22.0742 16.9688 22.0898 16.7031C22.1055 16.5781 22.1289 16.4609 22.1602 16.3516C22.207 16.2266 22.2695 16.1172 22.3477 16.0234C22.2695 15.8359 22.2461 15.6562 22.2773 15.4844C22.293 15.2188 22.3242 14.9688 22.3711 14.7344C22.418 14.5 22.4492 14.2656 22.4648 14.0312C22.4648 13.9062 22.457 13.7891 22.4414 13.6797C22.4258 13.5547 22.4023 13.4375 22.3711 13.3281L22.1602 13.2578C22.0664 13.2578 21.9727 13.2812 21.8789 13.3281C21.8008 13.375 21.7305 13.4297 21.668 13.4922C21.6055 13.5547 21.5508 13.6094 21.5039 13.6562C21.457 13.6875 21.4102 13.7031 21.3633 13.7031C21.332 13.7031 21.293 13.7031 21.2461 13.7031C21.2148 13.6875 21.1836 13.6797 21.1523 13.6797C21.1211 13.6797 21.0586 13.7109 20.9648 13.7734C20.8867 13.8359 20.7852 13.9062 20.6602 13.9844C20.5508 14.0469 20.4414 14.1172 20.332 14.1953C20.2227 14.2578 20.1367 14.2969 20.0742 14.3125C19.9023 14.2812 19.7617 14.2266 19.6523 14.1484C19.5586 14.0547 19.4648 13.9688 19.3711 13.8906C19.293 13.7969 19.207 13.7188 19.1133 13.6562C19.0195 13.5781 18.9023 13.5469 18.7617 13.5625C18.7148 13.4688 18.6914 13.3672 18.6914 13.2578C18.6758 13.1484 18.6758 13.0391 18.6914 12.9297V12.5547C18.8008 12.3516 18.9492 12.1875 19.1367 12.0625C19.3086 11.9219 19.4961 11.8047 19.6992 11.7109L20.3086 11.4297C20.5117 11.3359 20.6992 11.2188 20.8711 11.0781H21.082C21.3633 11.0938 21.6055 11.0391 21.8086 10.9141C22.0273 10.7891 22.2305 10.6484 22.418 10.4922C22.6055 10.3203 22.793 10.1484 22.9805 9.97656C23.1836 9.80469 23.4023 9.67188 23.6367 9.57812C23.8086 9.65625 23.9883 9.72656 24.1758 9.78906C24.3633 9.83594 24.5586 9.86719 24.7617 9.88281C24.9648 9.88281 25.1758 9.85156 25.3945 9.78906C25.6133 9.72656 25.7852 9.60938 25.9102 9.4375C25.9883 9.46875 26.0508 9.49219 26.0977 9.50781C26.1602 9.50781 26.2305 9.50781 26.3086 9.50781C26.543 9.52344 26.7773 9.49219 27.0117 9.41406C27.2461 9.32031 27.4727 9.21094 27.6914 9.08594C28.0039 9.10156 28.3086 9.08594 28.6055 9.03906C28.918 8.97656 29.2227 8.91406 29.5195 8.85156C29.832 8.78906 30.1367 8.73438 30.4336 8.6875C30.7461 8.625 31.0586 8.60156 31.3711 8.61719C31.8867 8.63281 32.3945 8.58594 32.8945 8.47656C33.3945 8.36719 33.9023 8.32812 34.418 8.35938C34.7773 8.375 35.1289 8.40625 35.4727 8.45312C35.832 8.48438 36.1914 8.49219 36.5508 8.47656C36.7539 8.57031 36.9336 8.65625 37.0898 8.73438C37.2617 8.79688 37.4727 8.8125 37.7227 8.78125C38.2227 9.20312 38.6758 9.69531 39.082 10.2578V10.6562C39.0664 11.0156 39.0039 11.3672 38.8945 11.7109C38.7852 12.0547 38.6523 12.3984 38.4961 12.7422C38.3555 13.0703 38.1992 13.3984 38.0273 13.7266C37.8555 14.0391 37.6914 14.3516 37.5352 14.6641C36.5195 15.5859 35.5039 16.5 34.4883 17.4062C33.4727 18.3125 32.4258 19.1875 31.3477 20.0312C31.3164 20.1875 31.2695 20.3281 31.207 20.4531C31.1602 20.5781 31.1289 20.7109 31.1133 20.8516C31.1133 20.9297 31.1211 20.9922 31.1367 21.0391C31.2461 21.0703 31.3398 21.1328 31.418 21.2266C31.5117 21.3047 31.543 21.4141 31.5117 21.5547H31.7227C31.8008 21.5547 31.8398 21.5859 31.8398 21.6484L32.2148 21.6719C32.8086 21.7031 33.4023 21.6875 33.9961 21.625C34.5898 21.5625 35.1836 21.4922 35.7773 21.4141C36.3867 21.3359 36.9883 21.2656 37.582 21.2031C38.1758 21.125 38.7695 21.0781 39.3633 21.0625C39.5039 21.0156 39.6523 20.9766 39.8086 20.9453C39.9648 20.9141 40.1055 20.8516 40.2305 20.7578H40.3008C40.4102 20.7578 40.4883 20.7891 40.5352 20.8516C40.5977 20.9141 40.6836 20.9531 40.793 20.9688C40.8711 20.9688 40.9492 20.9531 41.0273 20.9219C41.1211 20.8906 41.2148 20.8672 41.3086 20.8516C41.5273 20.7891 41.7539 20.75 41.9883 20.7344C42.2383 20.7188 42.4805 20.6953 42.7148 20.6641C43.6211 20.5859 44.5195 20.5391 45.4102 20.5234C46.3008 20.4922 47.1914 20.375 48.082 20.1719C48.1602 20.2812 48.2695 20.3594 48.4102 20.4062C48.5508 20.4375 48.6992 20.4766 48.8555 20.5234C49.0117 20.5547 49.1523 20.5938 49.2773 20.6406C49.418 20.6875 49.5117 20.7812 49.5586 20.9219ZM47.9648 21.7891C47.8867 21.9141 47.793 22.0312 47.6836 22.1406C47.5742 22.2344 47.4727 22.3359 47.3789 22.4453C47.2695 22.4922 47.1445 22.5156 47.0039 22.5156C46.8789 22.5156 46.7539 22.5156 46.6289 22.5156C46.5195 22.5 46.4102 22.5 46.3008 22.5156C46.207 22.5156 46.1289 22.5469 46.0664 22.6094C45.9414 22.5781 45.8477 22.5234 45.7852 22.4453C45.7227 22.3516 45.6133 22.2969 45.457 22.2812C45.3945 22.2656 45.332 22.2656 45.2695 22.2812C45.0352 22.0156 44.8164 21.7344 44.6133 21.4375C44.4258 21.1406 44.2461 20.8594 44.0742 20.5938C44.0586 20.0156 44.0117 19.4297 43.9336 18.8359C43.918 18.6953 43.8945 18.5547 43.8633 18.4141C43.832 18.2734 43.8086 18.1406 43.793 18.0156C43.793 17.8594 43.8008 17.7109 43.8164 17.5703C43.8477 17.4141 43.8711 17.2734 43.8867 17.1484C43.9492 16.6953 44.0195 16.25 44.0977 15.8125C44.1758 15.375 44.2461 14.9297 44.3086 14.4766C44.3711 14.0703 44.4023 13.6484 44.4023 13.2109C44.4023 12.7578 44.332 12.3359 44.1914 11.9453L44.168 11.8281C44.1992 11.7031 44.2305 11.6016 44.2617 11.5234C44.3086 11.4297 44.3398 11.3281 44.3555 11.2188C44.3867 11.0469 44.3477 10.9219 44.2383 10.8438C44.2852 10.7188 44.3633 10.6406 44.4727 10.6094C44.582 10.5625 44.6445 10.4688 44.6602 10.3281C44.6758 10.2656 44.6758 10.2031 44.6602 10.1406C44.7852 10.0938 44.9102 10.0547 45.0352 10.0234C45.1758 9.97656 45.3086 9.96875 45.4336 10C45.6367 10.0312 45.8164 10.1016 45.9727 10.2109C46.1289 10.3047 46.2773 10.4141 46.418 10.5391C46.668 11.2891 46.7695 12.0859 46.7227 12.9297C46.6758 13.7578 46.5977 14.5938 46.4883 15.4375C46.3789 16.2812 46.3086 17.1094 46.2773 17.9219C46.2461 18.7188 46.3711 19.4609 46.6523 20.1484L46.6992 20.1719C46.7773 20.1875 46.8398 20.1641 46.8867 20.1016C46.9336 20.0234 46.9961 19.9922 47.0742 20.0078C47.1367 20.0391 47.1758 20.0547 47.1914 20.0547C47.2539 20.3672 47.3555 20.6641 47.4961 20.9453C47.6367 21.2266 47.793 21.5078 47.9648 21.7891ZM68.4961 11.9688C68.4961 12.1875 68.4883 12.4062 68.4727 12.625C68.457 12.8438 68.4336 13.0625 68.4023 13.2812C68.293 13.4375 68.1836 13.5781 68.0742 13.7031C67.9805 13.8125 67.918 13.9531 67.8867 14.125C67.7148 14.25 67.5195 14.4219 67.3008 14.6406C67.0977 14.8594 67.0117 15.0781 67.043 15.2969H66.7148C66.5273 15.5781 66.3086 15.8203 66.0586 16.0234C65.8086 16.2266 65.543 16.4219 65.2617 16.6094L64.4414 17.1484C64.1758 17.3203 63.9258 17.5234 63.6914 17.7578C63.5664 17.7734 63.4648 17.7969 63.3867 17.8281C63.3086 17.8594 63.207 17.8672 63.082 17.8516C62.5977 18.1641 62.0898 18.4375 61.5586 18.6719C61.043 18.9062 60.5195 19.1406 59.9883 19.375C59.4727 19.5938 58.957 19.8281 58.4414 20.0781C57.9258 20.3281 57.4336 20.6172 56.9648 20.9453C56.918 20.9297 56.8555 20.9219 56.7773 20.9219C56.6367 20.9219 56.4961 20.9453 56.3555 20.9922C56.2148 21.0234 56.0742 21.0391 55.9336 21.0391C55.8711 21.0391 55.7852 21.0312 55.6758 21.0156C55.582 21 55.5117 20.9766 55.4648 20.9453C55.3867 20.8984 55.3164 20.8281 55.2539 20.7344C55.1914 20.6406 55.1445 20.5391 55.1133 20.4297C55.082 20.3047 55.0586 20.1875 55.043 20.0781C55.0273 19.9688 55.0195 19.875 55.0195 19.7969C55.0195 19.7031 55.0273 19.6016 55.043 19.4922C55.0586 19.3828 55.082 19.2812 55.1133 19.1875C55.5664 19.1562 56.0195 19.0391 56.4727 18.8359C56.9414 18.6328 57.3867 18.4375 57.8086 18.25C57.918 18.2031 58.0039 18.1484 58.0664 18.0859C58.1445 18.0078 58.2227 17.9453 58.3008 17.8984C58.3789 17.8359 58.4648 17.7812 58.5586 17.7344C58.6523 17.6875 58.7695 17.6641 58.9102 17.6641H58.9805C59.9648 17.2109 60.9258 16.7188 61.8633 16.1875C62.8164 15.6562 63.7617 15.1172 64.6992 14.5703C64.7461 14.4297 64.8164 14.2891 64.9102 14.1484C65.0195 14.0078 65.1211 13.875 65.2148 13.75C65.3086 13.6094 65.3945 13.4688 65.4727 13.3281C65.5508 13.1875 65.5898 13.0469 65.5898 12.9062C65.5898 12.625 65.457 12.3906 65.1914 12.2031H65.0977C64.9102 12.2031 64.7461 12.1797 64.6055 12.1328C64.4648 12.0703 64.332 12.0156 64.207 11.9688C64.082 11.9062 63.9414 11.8594 63.7852 11.8281C63.6289 11.7812 63.4492 11.7656 63.2461 11.7812C63.168 11.7188 63.043 11.6641 62.8711 11.6172C62.6992 11.5703 62.5586 11.5469 62.4492 11.5469C61.8867 11.5469 61.332 11.5859 60.7852 11.6641C60.2383 11.7266 59.6914 11.7656 59.1445 11.7812C59.0039 11.8594 58.8711 11.9297 58.7461 11.9922C58.6211 12.0547 58.4727 12.0859 58.3008 12.0859C58.2227 12.0859 58.1523 12.0859 58.0898 12.0859C58.0273 12.0703 57.957 12.0547 57.8789 12.0391C57.582 12.1641 57.2461 12.2734 56.8711 12.3672C56.4961 12.4453 56.1211 12.5469 55.7461 12.6719C55.3867 12.7812 55.0508 12.9219 54.7383 13.0938C54.4258 13.2656 54.1836 13.5 54.0117 13.7969C54.0117 13.875 54.0273 13.9453 54.0586 14.0078C54.0898 14.0547 54.1055 14.1172 54.1055 14.1953V14.2891C54.0117 14.3828 53.9492 14.4922 53.918 14.6172C53.8867 14.7266 53.8633 14.8438 53.8477 14.9688C53.832 15.0781 53.8086 15.1953 53.7773 15.3203C53.7617 15.4297 53.707 15.5391 53.6133 15.6484C53.6758 15.8828 53.707 16.1406 53.707 16.4219C53.707 16.7344 53.6836 17.0469 53.6367 17.3594C53.6055 17.6719 53.5898 17.9844 53.5898 18.2969C53.5898 18.5938 53.6211 18.8594 53.6836 19.0938C53.5898 19.1875 53.5508 19.3281 53.5664 19.5156C53.582 19.7031 53.543 19.8438 53.4492 19.9375C53.4492 20.0625 53.4805 20.1484 53.543 20.1953C53.6211 20.2422 53.668 20.3203 53.6836 20.4297C53.6211 20.6953 53.5898 20.9844 53.5898 21.2969C53.5898 21.75 53.6367 22.2109 53.7305 22.6797C53.8398 23.1484 53.9648 23.6094 54.1055 24.0625C54.3555 23.9844 54.6211 23.9219 54.9023 23.875C55.1992 23.8125 55.4805 23.7812 55.7461 23.7812C55.793 23.7812 55.8398 23.7891 55.8867 23.8047C55.9336 23.8047 55.9805 23.8047 56.0273 23.8047C56.0586 23.9766 56.1211 24.1328 56.2148 24.2734C56.3086 24.4141 56.3945 24.5703 56.4727 24.7422C56.3945 24.8516 56.3242 24.9375 56.2617 25C56.2148 25.0781 56.1914 25.1797 56.1914 25.3047C55.9727 25.3203 55.793 25.375 55.6523 25.4688C55.5117 25.5781 55.3555 25.6953 55.1836 25.8203H55.0898C54.8242 25.8203 54.6055 25.8672 54.4336 25.9609C54.2617 26.0703 54.0664 26.1875 53.8477 26.3125C53.6602 26.2344 53.4727 26.1953 53.2852 26.1953C53.082 26.1953 52.8789 26.2344 52.6758 26.3125C52.4258 26.2031 52.2227 26.0312 52.0664 25.7969C51.9102 25.5781 51.7773 25.3281 51.668 25.0469C51.5586 24.7812 51.457 24.5078 51.3633 24.2266C51.2852 23.9453 51.1914 23.6875 51.082 23.4531V23.0781C51.082 22.7188 51.0508 22.375 50.9883 22.0469C50.9414 21.7031 50.918 21.3516 50.918 20.9922C50.918 20.8516 50.9258 20.7031 50.9414 20.5469C50.9727 20.3906 51.0195 20.2422 51.082 20.1016C51.0508 19.9609 51.0352 19.8281 51.0352 19.7031V19.2578C51.0352 18.7891 51.0508 18.3203 51.082 17.8516C51.1289 17.3828 51.1523 16.9141 51.1523 16.4453C51.1523 16.1016 51.1289 15.75 51.082 15.3906C51.0039 15.4219 50.9336 15.4531 50.8711 15.4844C50.8086 15.5156 50.7383 15.5312 50.6602 15.5312C50.582 15.5312 50.5039 15.5234 50.4258 15.5078C50.3633 15.4922 50.3008 15.4766 50.2383 15.4609C50.082 15.3203 49.9727 15.1484 49.9102 14.9453C49.8477 14.7422 49.7617 14.5547 49.6523 14.3828C49.6523 14.0859 49.6992 13.8438 49.793 13.6562C49.8711 13.4531 49.9727 13.2734 50.0977 13.1172C50.2227 12.9453 50.3477 12.7812 50.4727 12.625C50.6133 12.4688 50.7305 12.2734 50.8242 12.0391H50.918C51.168 12.0391 51.418 11.9609 51.668 11.8047C51.918 11.6328 52.1992 11.5469 52.5117 11.5469C52.6211 11.4062 52.7695 11.2891 52.957 11.1953C53.1445 11.0859 53.3398 11 53.543 10.9375C53.7617 10.875 53.9727 10.8359 54.1758 10.8203C54.3945 10.7891 54.5977 10.7734 54.7852 10.7734C54.8477 10.6641 54.9414 10.5938 55.0664 10.5625C55.1914 10.5156 55.3164 10.4766 55.4414 10.4453C55.582 10.3984 55.707 10.3594 55.8164 10.3281C55.9414 10.2812 56.043 10.2031 56.1211 10.0938C56.2461 10.125 56.3633 10.1406 56.4727 10.1406C56.6758 10.1406 56.8711 10.1172 57.0586 10.0703C57.2461 10.0078 57.4336 9.94531 57.6211 9.88281C57.8086 9.80469 57.9961 9.73438 58.1836 9.67188C58.3867 9.60938 58.5977 9.57812 58.8164 9.57812C58.8945 9.57812 58.9727 9.58594 59.0508 9.60156C59.1289 9.60156 59.207 9.60156 59.2852 9.60156C59.4102 9.60156 59.4805 9.55469 59.4961 9.46094C59.5273 9.36719 59.582 9.29688 59.6602 9.25C59.707 9.26562 59.793 9.27344 59.918 9.27344C60.2305 9.27344 60.5352 9.25 60.832 9.20312C61.1289 9.14062 61.4336 9.10938 61.7461 9.10938C61.8867 9.10938 62.0273 9.11719 62.168 9.13281C62.3086 9.14844 62.4492 9.1875 62.5898 9.25C62.6211 9.20312 62.6523 9.16406 62.6836 9.13281C62.7148 9.10156 62.7383 9.0625 62.7539 9.01562C63.5195 9.0625 64.2383 9.21875 64.9102 9.48438C65.5977 9.75 66.3086 9.98438 67.043 10.1875C67.1367 10.3281 67.2461 10.4531 67.3711 10.5625L67.7695 10.8906C67.9102 11 68.043 11.1094 68.168 11.2188C68.293 11.3281 68.4023 11.4609 68.4961 11.6172V11.9688ZM88.207 24.1328C88.207 24.2891 88.1992 24.4062 88.1836 24.4844C88.1055 24.5156 88.043 24.5625 87.9961 24.625C87.9492 24.6719 87.8711 24.6875 87.7617 24.6719C87.7305 24.9062 87.6523 25.1016 87.5273 25.2578C87.4023 25.4141 87.2695 25.5547 87.1289 25.6797C87.0039 25.8203 86.8789 25.9609 86.7539 26.1016C86.6289 26.2578 86.5508 26.4531 86.5195 26.6875C86.2852 26.8125 86.0508 26.9766 85.8164 27.1797C85.5977 27.3984 85.4023 27.5469 85.2305 27.625C85.1055 27.6875 84.9727 27.7344 84.832 27.7656C84.6914 27.8125 84.5508 27.8672 84.4102 27.9297C83.957 28.1328 83.4883 28.3438 83.0039 28.5625C82.5352 28.7812 82.043 28.8906 81.5273 28.8906H81.3633C81.3008 28.9531 81.2227 28.9922 81.1289 29.0078C81.0352 29.0391 80.9414 29.0625 80.8477 29.0781C80.7539 29.0938 80.6602 29.1172 80.5664 29.1484C80.4727 29.1797 80.4023 29.2266 80.3555 29.2891C80.1836 29.2266 79.9961 29.1953 79.793 29.1953H79.6289C79.3633 29.2578 79.1133 29.3047 78.8789 29.3359C78.6445 29.3672 78.3945 29.3828 78.1289 29.3828C77.6602 29.3828 77.1914 29.3516 76.7227 29.2891C76.2539 29.2266 75.7852 29.1719 75.3164 29.125C75.0195 28.8906 74.7773 28.5938 74.5898 28.2344C74.4023 27.8906 74.3086 27.5234 74.3086 27.1328C74.3086 26.8359 74.3711 26.5547 74.4961 26.2891C74.6211 26.0391 74.7852 25.8125 74.9883 25.6094H75.0586C75.1992 25.6094 75.3398 25.5781 75.4805 25.5156C75.6367 25.4531 75.7852 25.4219 75.9258 25.4219C76.082 25.4219 76.207 25.4844 76.3008 25.6094C76.4102 25.7344 76.4883 25.8828 76.5352 26.0547C76.5977 26.2266 76.6367 26.3984 76.6523 26.5703C76.668 26.7578 76.6758 26.9062 76.6758 27.0156C76.8477 27.0938 77.0273 27.1406 77.2148 27.1562C77.418 27.1719 77.6211 27.1797 77.8242 27.1797C78.0273 27.1797 78.2539 27.1641 78.5039 27.1328C78.7539 27.1172 79.0039 27.0781 79.2539 27.0156C79.5195 26.9688 79.7695 26.9062 80.0039 26.8281C80.2539 26.75 80.4648 26.6484 80.6367 26.5234C81.4961 26.4453 82.2539 26.25 82.9102 25.9375C83.5664 25.625 84.2617 25.2578 84.9961 24.8359C85.0273 24.6641 85.0898 24.5312 85.1836 24.4375C85.293 24.3281 85.3477 24.1719 85.3477 23.9688C85.3477 23.9375 85.3398 23.9062 85.3242 23.875C85.3242 23.8281 85.3242 23.7891 85.3242 23.7578C85.0117 23.3672 84.6836 23.0234 84.3398 22.7266C84.0117 22.4297 83.582 22.2344 83.0508 22.1406C82.9883 22 82.8867 21.8984 82.7461 21.8359C82.6055 21.7578 82.457 21.6875 82.3008 21.625C82.1445 21.5625 81.9961 21.5 81.8555 21.4375C81.7148 21.3594 81.6133 21.2344 81.5508 21.0625C81.1289 20.9844 80.6914 20.8906 80.2383 20.7812C79.8008 20.6562 79.4258 20.4375 79.1133 20.125C78.8633 20.1094 78.6211 20.0625 78.3867 19.9844C78.168 19.8906 77.9492 19.8047 77.7305 19.7266C77.5117 19.6328 77.2852 19.5547 77.0508 19.4922C76.8164 19.4141 76.5742 19.375 76.3242 19.375C76.2617 19.2656 76.1758 19.1797 76.0664 19.1172C75.957 19.0547 75.832 19 75.6914 18.9531C75.5664 18.9062 75.4414 18.8594 75.3164 18.8125C75.207 18.75 75.1211 18.6641 75.0586 18.5547C74.9961 18.5703 74.9492 18.6016 74.918 18.6484C74.8867 18.6953 74.832 18.7188 74.7539 18.7188H74.6602C74.6289 18.625 74.5664 18.5625 74.4727 18.5312C74.3789 18.4844 74.3242 18.3984 74.3086 18.2734C74.0273 18.2578 73.7695 18.2031 73.5352 18.1094C73.3164 18.0156 73.1055 17.9141 72.9023 17.8047C72.7148 17.6797 72.5195 17.5625 72.3164 17.4531C72.1133 17.3438 71.8867 17.2578 71.6367 17.1953C71.4805 17.0703 71.332 16.9375 71.1914 16.7969C71.0664 16.6406 70.9023 16.5625 70.6992 16.5625C70.6523 16.5625 70.5664 16.5781 70.4414 16.6094C70.4102 16.3281 70.293 16.1328 70.0898 16.0234C69.8867 15.8984 69.668 15.7891 69.4336 15.6953C69.2773 15.2891 69.0664 14.9297 68.8008 14.6172C68.5352 14.3047 68.2461 14.0156 67.9336 13.75C67.9648 13.6562 67.9805 13.5859 67.9805 13.5391C67.9805 13.3828 67.9414 13.25 67.8633 13.1406C67.7852 13.0156 67.6992 12.9141 67.6055 12.8359C67.3867 12.1328 67.2773 11.4453 67.2773 10.7734C67.2773 9.83594 67.4883 8.96875 67.9102 8.17188C68.3164 7.35938 68.9648 6.75 69.8555 6.34375C69.8711 6.21875 69.9102 6.10938 69.9727 6.01562C70.0508 5.92188 70.0977 5.8125 70.1133 5.6875C70.2539 5.6875 70.3633 5.65625 70.4414 5.59375C70.5195 5.53125 70.5898 5.46875 70.6523 5.40625C70.7305 5.32812 70.8086 5.25781 70.8867 5.19531C70.9648 5.13281 71.0664 5.09375 71.1914 5.07812C71.7852 4.5625 72.418 4.14844 73.0898 3.83594C73.7617 3.50781 74.4492 3.17187 75.1523 2.82812C75.293 2.76563 75.4102 2.64844 75.5039 2.47656H75.6445C75.8008 2.47656 75.918 2.44531 75.9961 2.38281C76.0898 2.30469 76.2227 2.28125 76.3945 2.3125C76.457 2.21875 76.5352 2.15625 76.6289 2.125C76.7383 2.09375 76.8398 2.07031 76.9336 2.05469C77.043 2.02344 77.1445 1.98438 77.2383 1.9375C77.332 1.89062 77.3945 1.82031 77.4258 1.72656H77.5898C77.8555 1.72656 78.1133 1.6875 78.3633 1.60938C78.6133 1.51562 78.8633 1.41406 79.1133 1.30469H79.2773C79.5898 1.30469 79.8789 1.25 80.1445 1.14062C80.4258 1.01562 80.7227 0.929688 81.0352 0.882812C81.1602 0.851563 81.2852 0.84375 81.4102 0.859375C81.5352 0.875 81.6602 0.882812 81.7852 0.882812C81.8633 0.882812 81.957 0.875 82.0664 0.859375C82.1758 0.84375 82.2539 0.796875 82.3008 0.71875H82.3477C82.4414 0.71875 82.4961 0.75 82.5117 0.8125C82.5273 0.875 82.5742 0.90625 82.6523 0.90625C82.7617 0.90625 82.8711 0.890625 82.9805 0.859375C83.0898 0.828125 83.1992 0.8125 83.3086 0.8125C83.7773 0.8125 84.2383 0.859375 84.6914 0.953125C85.1602 1.04688 85.6211 1.13281 86.0742 1.21094C86.1055 1.39844 86.1836 1.53125 86.3086 1.60938C86.4492 1.6875 86.5977 1.75781 86.7539 1.82031V1.91406C86.7539 2.03906 86.7852 2.14062 86.8477 2.21875C86.7852 2.4375 86.6758 2.60156 86.5195 2.71094C86.3633 2.82031 86.1914 2.91406 86.0039 2.99219C86.082 3.05469 86.1289 3.14063 86.1445 3.25C86.1602 3.35937 86.168 3.46094 86.168 3.55469V3.83594L86.0508 3.8125C85.8008 3.8125 85.6758 3.92969 85.6758 4.16406C85.4727 4.03906 85.2461 3.96094 84.9961 3.92969C84.7617 3.89844 84.5273 3.88281 84.293 3.88281C83.9805 3.88281 83.6523 3.89844 83.3086 3.92969C82.9648 3.94531 82.6289 3.9375 82.3008 3.90625C82.1758 4.0625 82.0195 4.17969 81.832 4.25781C81.6445 4.32031 81.457 4.35156 81.2695 4.35156C81.0664 4.35156 80.8711 4.3125 80.6836 4.23438C80.4961 4.14062 80.3633 4.00781 80.2852 3.83594C80.207 3.80469 80.1367 3.78906 80.0742 3.78906H79.8633C79.6133 3.78906 79.3633 3.82031 79.1133 3.88281C78.8789 3.92969 78.6367 3.99219 78.3867 4.07031C78.1367 4.13281 77.8867 4.20312 77.6367 4.28125C77.4023 4.34375 77.1602 4.38281 76.9102 4.39844C76.8164 4.52344 76.6914 4.60938 76.5352 4.65625C76.3789 4.70312 76.2539 4.78906 76.1602 4.91406C75.832 4.97656 75.5352 5.08594 75.2695 5.24219C75.0039 5.38281 74.7461 5.53906 74.4961 5.71094L73.7695 6.20312C73.5352 6.35937 73.2695 6.49219 72.9727 6.60156C72.7539 6.83594 72.5508 7.02344 72.3633 7.16406C72.1758 7.30469 71.9336 7.42969 71.6367 7.53906C71.4492 7.60156 71.3398 7.69531 71.3086 7.82031C71.293 7.94531 71.2305 8.07031 71.1211 8.19531C71.0273 8.30469 70.9102 8.39062 70.7695 8.45312C70.6445 8.5 70.5352 8.58594 70.4414 8.71094C70.3633 8.82031 70.3008 8.95312 70.2539 9.10938C70.2227 9.25 70.1836 9.39062 70.1367 9.53125C70.0898 9.67188 70.0352 9.8125 69.9727 9.95312C69.9102 10.0781 69.8164 10.1875 69.6914 10.2812C69.6914 10.3438 69.6836 10.4062 69.668 10.4688C69.668 10.5312 69.668 10.5859 69.668 10.6328C69.668 10.8516 69.6914 11.0781 69.7383 11.3125C69.8008 11.5312 69.8398 11.75 69.8555 11.9688C70.168 12.5156 70.5352 13.0156 70.957 13.4688C71.3789 13.9062 71.832 14.3125 72.3164 14.6875C72.8008 15.0625 73.3008 15.4141 73.8164 15.7422C74.3477 16.0703 74.8711 16.3906 75.3867 16.7031C75.5742 16.6875 75.7461 16.7109 75.9023 16.7734C76.0586 16.8203 76.2227 16.8516 76.3945 16.8672C76.582 17.0078 76.8008 17.1172 77.0508 17.1953L77.8008 17.4297C78.0508 17.5078 78.293 17.6016 78.5273 17.7109C78.7617 17.8047 78.957 17.9375 79.1133 18.1094C79.1914 18.125 79.2617 18.1484 79.3242 18.1797C79.3867 18.1953 79.457 18.2031 79.5352 18.2031C79.6289 18.2031 79.6836 18.1719 79.6992 18.1094C80.4023 18.375 81.0898 18.6719 81.7617 19C82.4336 19.3125 83.1445 19.5547 83.8945 19.7266C84.1914 19.9766 84.5195 20.1953 84.8789 20.3828C85.2383 20.5703 85.5977 20.7656 85.957 20.9688C86.3164 21.1562 86.6602 21.3672 86.9883 21.6016C87.3164 21.8203 87.6055 22.0859 87.8555 22.3984C87.8867 22.6953 87.9492 22.9844 88.043 23.2656C88.1523 23.5312 88.207 23.8203 88.207 24.1328ZM107.051 20.7812C107.051 20.9375 107.004 21.0703 106.91 21.1797C106.832 21.2734 106.73 21.3594 106.605 21.4375C106.496 21.5156 106.379 21.5859 106.254 21.6484C106.145 21.7109 106.043 21.7891 105.949 21.8828C105.887 21.9453 105.84 22.0234 105.809 22.1172C105.793 22.1953 105.754 22.25 105.691 22.2812C105.598 22.3594 105.496 22.4062 105.387 22.4219C105.277 22.4375 105.16 22.4609 105.035 22.4922C104.926 22.5078 104.816 22.5391 104.707 22.5859C104.598 22.6172 104.504 22.6875 104.426 22.7969C103.691 22.875 102.965 22.9766 102.246 23.1016C101.543 23.2266 100.816 23.2891 100.066 23.2891C99.9258 23.2891 99.7695 23.3047 99.5977 23.3359C99.4414 23.3516 99.293 23.3672 99.1523 23.3828C98.8242 23.4141 98.4961 23.4375 98.168 23.4531C97.8555 23.4688 97.5352 23.4766 97.207 23.4766C96.7539 23.4766 96.3008 23.4609 95.8477 23.4297C95.3945 23.3828 94.9492 23.3125 94.5117 23.2188C94.4023 23.1406 94.2773 23.0781 94.1367 23.0312C93.9961 22.9844 93.8477 22.9375 93.6914 22.8906C93.5508 22.8438 93.418 22.7891 93.293 22.7266C93.168 22.6641 93.0742 22.5703 93.0117 22.4453C92.7773 22.4297 92.5664 22.3828 92.3789 22.3047C92.207 22.2266 92.043 22.1406 91.8867 22.0469C91.7461 21.9375 91.5977 21.8281 91.4414 21.7188C91.2852 21.6094 91.1055 21.5156 90.9023 21.4375C90.7461 21.2188 90.582 21.0078 90.4102 20.8047C90.2539 20.5859 90.0586 20.4062 89.8242 20.2656C89.7773 19.9688 89.6992 19.6719 89.5898 19.375C89.4961 19.0781 89.3945 18.7891 89.2852 18.5078C89.1914 18.2109 89.1133 17.9141 89.0508 17.6172C88.9727 17.3203 88.9336 17.0156 88.9336 16.7031C88.9336 16.4844 88.9648 16.2188 89.0273 15.9062C89.0898 15.5938 89.168 15.2812 89.2617 14.9688C89.3711 14.6406 89.4961 14.3359 89.6367 14.0547C89.7773 13.7734 89.918 13.5469 90.0586 13.375C90.1055 13.3281 90.1602 13.2891 90.2227 13.2578C90.2852 13.2266 90.3398 13.1797 90.3867 13.1172C90.5273 12.9609 90.6758 12.8359 90.832 12.7422C90.9883 12.6328 91.1523 12.5078 91.3242 12.3672C91.3867 12.3047 91.4336 12.2344 91.4648 12.1562C91.5117 12.0781 91.5742 12.0078 91.6523 11.9453C91.6992 11.9141 91.7617 11.9062 91.8398 11.9219C91.9336 11.9375 92.0117 11.9219 92.0742 11.875C92.1367 11.8281 92.168 11.7734 92.168 11.7109C92.168 11.6484 92.1914 11.5938 92.2383 11.5469C92.2539 11.5312 92.3008 11.5312 92.3789 11.5469C92.457 11.5469 92.5039 11.5469 92.5195 11.5469C92.6289 11.5469 92.7539 11.4766 92.8945 11.3359C93.0352 11.1797 93.1523 11.0781 93.2461 11.0312C93.3555 10.9688 93.4648 10.9297 93.5742 10.9141C93.6836 10.8828 93.8008 10.8359 93.9258 10.7734C94.0977 10.6797 94.2617 10.6094 94.418 10.5625C94.5898 10.5 94.7617 10.4297 94.9336 10.3516C95.0273 10.3203 95.1133 10.2656 95.1914 10.1875C95.2695 10.1094 95.3477 10.0547 95.4258 10.0234C95.5664 9.97656 95.7148 9.94531 95.8711 9.92969C96.043 9.89844 96.1992 9.875 96.3398 9.85938C96.4961 9.82812 96.6445 9.79688 96.7852 9.76562C96.9414 9.71875 97.082 9.64062 97.207 9.53125H97.3945C97.6758 9.53125 97.9492 9.49219 98.2148 9.41406C98.4805 9.33594 98.7539 9.29688 99.0352 9.29688C99.1133 9.29688 99.2305 9.3125 99.3867 9.34375C99.5117 9.26562 99.6523 9.22656 99.8086 9.22656C100.074 9.22656 100.34 9.29688 100.605 9.4375C100.871 9.5625 101.145 9.625 101.426 9.625H101.566C101.629 9.625 101.691 9.61719 101.754 9.60156C101.926 9.77344 102.129 9.86719 102.363 9.88281C102.613 9.89844 102.824 9.96875 102.996 10.0938C103.105 10.1875 103.191 10.2969 103.254 10.4219C103.332 10.5469 103.395 10.6797 103.441 10.8203L103.582 11.2422C103.629 11.3828 103.691 11.5078 103.77 11.6172C103.691 12.1797 103.457 12.6328 103.066 12.9766C102.691 13.3047 102.215 13.4688 101.637 13.4688C101.418 13.4688 101.23 13.4453 101.074 13.3984C100.934 13.3359 100.801 13.2734 100.676 13.2109C100.566 13.1484 100.449 13.0859 100.324 13.0234C100.199 12.9609 100.059 12.9141 99.9023 12.8828C100.074 12.5703 100.184 12.2344 100.23 11.875C100.059 11.7969 99.8867 11.7422 99.7148 11.7109C99.543 11.6797 99.3789 11.625 99.2227 11.5469C98.8008 11.6562 98.3867 11.7344 97.9805 11.7812C97.5898 11.8125 97.2227 11.9766 96.8789 12.2734C96.8008 12.2578 96.7148 12.2422 96.6211 12.2266C96.543 12.2109 96.4648 12.2031 96.3867 12.2031C96.293 12.2031 96.1055 12.2734 95.8242 12.4141C95.543 12.5391 95.2383 12.6875 94.9102 12.8594C94.5977 13.0312 94.293 13.2031 93.9961 13.375C93.7148 13.5469 93.5195 13.6641 93.4102 13.7266C93.2852 13.8047 93.1758 13.8984 93.082 14.0078C92.9883 14.1172 92.8945 14.2344 92.8008 14.3594C92.707 14.4688 92.6133 14.5781 92.5195 14.6875C92.4258 14.7812 92.3086 14.8516 92.168 14.8984C92.1367 15.0703 92.082 15.2188 92.0039 15.3438C91.9258 15.4688 91.8398 15.6016 91.7461 15.7422C91.7305 16.0234 91.6992 16.3047 91.6523 16.5859C91.6211 16.8672 91.6055 17.1484 91.6055 17.4297V17.7344C91.6055 17.8281 91.6211 17.9141 91.6523 17.9922C91.8086 18.1953 91.9336 18.4219 92.0273 18.6719C92.1367 18.9219 92.3164 19.0938 92.5664 19.1875C92.582 19.25 92.5742 19.2891 92.543 19.3047C92.5273 19.3203 92.5117 19.3594 92.4961 19.4219C92.5898 19.5938 92.707 19.7344 92.8477 19.8438C93.0039 19.9375 93.1602 20.0391 93.3164 20.1484C93.4727 20.2422 93.6211 20.3438 93.7617 20.4531C93.9023 20.5625 94.0117 20.7031 94.0898 20.875C94.3242 20.875 94.543 20.9141 94.7461 20.9922C94.9648 21.0703 95.168 21.1562 95.3555 21.25C95.5586 21.3438 95.7461 21.4297 95.918 21.5078C96.1055 21.5859 96.293 21.625 96.4805 21.625C96.6523 21.625 96.8086 21.6016 96.9492 21.5547C97.3555 21.6797 97.7617 21.7734 98.168 21.8359C98.5898 21.8828 99.0117 21.9062 99.4336 21.9062C99.9492 21.9062 100.465 21.875 100.98 21.8125C101.496 21.75 102.012 21.6953 102.527 21.6484C102.715 21.6172 102.895 21.6016 103.066 21.6016C103.238 21.6016 103.41 21.5859 103.582 21.5547C103.801 21.5234 104.004 21.4219 104.191 21.25C104.395 21.0781 104.59 20.9531 104.777 20.875C104.949 20.9844 105.152 21.0391 105.387 21.0391C105.652 21.0391 105.91 21 106.16 20.9219C106.41 20.8281 106.668 20.7812 106.934 20.7812H107.051ZM136.84 20.9219C136.809 21.1562 136.723 21.3359 136.582 21.4609C136.457 21.5859 136.309 21.7031 136.137 21.8125C136.059 21.7969 135.98 21.7891 135.902 21.7891C135.84 21.7734 135.77 21.7656 135.691 21.7656C135.207 21.75 134.746 21.8125 134.309 21.9531C133.887 22.0938 133.449 22.1953 132.996 22.2578C132.84 22.2891 132.691 22.3047 132.551 22.3047C132.426 22.2891 132.293 22.2969 132.152 22.3281C131.652 22.4062 131.121 22.4688 130.559 22.5156C129.996 22.5625 129.434 22.625 128.871 22.7031C128.309 22.7656 127.754 22.8516 127.207 22.9609C126.676 23.0547 126.176 23.1953 125.707 23.3828C125.66 23.3516 125.613 23.3203 125.566 23.2891C125.52 23.2422 125.465 23.2188 125.402 23.2188C125.246 23.2188 125.098 23.2422 124.957 23.2891C124.816 23.3359 124.676 23.3516 124.535 23.3359C124.379 23.4297 124.207 23.5 124.02 23.5469C123.848 23.5781 123.668 23.6094 123.48 23.6406C123.309 23.6562 123.137 23.6875 122.965 23.7344C122.793 23.7812 122.629 23.8672 122.473 23.9922C122.348 23.9297 122.191 23.8984 122.004 23.8984C121.832 23.8828 121.715 23.8203 121.652 23.7109C121.293 23.8828 120.91 23.9922 120.504 24.0391C120.113 24.0859 119.715 24.1016 119.309 24.0859C119.043 24.0703 118.738 24.0312 118.395 23.9688C118.051 23.9062 117.707 23.8203 117.363 23.7109C117.02 23.5859 116.699 23.4453 116.402 23.2891C116.105 23.1172 115.879 22.9141 115.723 22.6797C115.613 22.5234 115.535 22.3516 115.488 22.1641C115.441 21.9766 115.332 21.8359 115.16 21.7422C115.207 21.3828 115.262 21.0312 115.324 20.6875C115.387 20.3438 115.449 19.9922 115.512 19.6328C115.824 19.3672 116.121 19.0859 116.402 18.7891C116.684 18.4922 116.949 18.1797 117.199 17.8516C117.496 17.7109 117.77 17.5391 118.02 17.3359C118.285 17.1328 118.543 16.9297 118.793 16.7266C119.059 16.5078 119.316 16.2969 119.566 16.0938C119.832 15.8906 120.113 15.7109 120.41 15.5547C120.457 15.4453 120.52 15.3594 120.598 15.2969C120.691 15.2188 120.785 15.1484 120.879 15.0859C120.973 15.0078 121.059 14.9297 121.137 14.8516C121.215 14.7578 121.27 14.6484 121.301 14.5234C121.848 14.1953 122.324 13.7812 122.73 13.2812C123.137 12.7812 123.402 12.2188 123.527 11.5938C123.262 11.375 122.957 11.2344 122.613 11.1719C122.285 11.0938 121.941 11.0391 121.582 11.0078C121.27 10.9922 120.941 10.9922 120.598 11.0078C120.27 11.0234 119.934 11.0156 119.59 10.9844C119.246 11.0938 118.887 11.1641 118.512 11.1953C118.152 11.2266 117.793 11.2578 117.434 11.2891C117.074 11.3047 116.715 11.3516 116.355 11.4297C116.012 11.4922 115.676 11.6172 115.348 11.8047C115.285 11.8047 115.223 11.7969 115.16 11.7812C115.113 11.7656 115.059 11.7578 114.996 11.7578C114.496 11.7422 114.027 11.8438 113.59 12.0625C113.152 12.2656 112.723 12.4688 112.301 12.6719C112.27 12.7344 112.254 12.7812 112.254 12.8125C112.254 12.9062 112.27 13 112.301 13.0938C112.348 13.1719 112.371 13.2578 112.371 13.3516C112.355 13.3672 112.348 13.3828 112.348 13.3984C112.348 13.4141 112.34 13.4297 112.324 13.4453C112.309 13.5234 112.285 13.5938 112.254 13.6562C112.238 13.7188 112.215 13.7891 112.184 13.8672C112.012 14.3672 111.918 14.8594 111.902 15.3438C111.887 15.75 111.887 16.1484 111.902 16.5391C111.918 16.9297 111.918 17.3281 111.902 17.7344C111.871 18.2344 111.793 18.7031 111.668 19.1406C111.746 19.5156 111.816 19.9141 111.879 20.3359C111.941 20.7422 112.02 21.1484 112.113 21.5547C112.207 21.9609 112.316 22.3594 112.441 22.75C112.582 23.125 112.762 23.4844 112.98 23.8281C112.965 23.8594 112.973 23.8828 113.004 23.8984C113.035 23.9141 113.066 23.9219 113.098 23.9219H113.285C113.363 23.9219 113.395 23.9531 113.379 24.0156C113.41 24.0625 113.434 24.1094 113.449 24.1562C113.465 24.1875 113.496 24.2188 113.543 24.25C113.574 24.2969 113.574 24.3594 113.543 24.4375C113.527 24.75 113.449 25.0391 113.309 25.3047C113.168 25.5703 113.082 25.8594 113.051 26.1719C112.863 26.2188 112.691 26.2422 112.535 26.2422C112.27 26.2266 112.035 26.1484 111.832 26.0078C111.629 25.8828 111.441 25.7266 111.27 25.5391C111.098 25.3516 110.934 25.1641 110.777 24.9766C110.621 24.7734 110.449 24.6016 110.262 24.4609C110.152 24.0234 110.043 23.5391 109.934 23.0078C109.84 22.4766 109.676 22.0234 109.441 21.6484C109.504 21.5078 109.535 21.3359 109.535 21.1328C109.551 20.8203 109.52 20.5156 109.441 20.2188C109.379 19.9062 109.363 19.5938 109.395 19.2812C109.395 19.1094 109.41 18.9375 109.441 18.7656C109.488 18.5938 109.52 18.4219 109.535 18.25C109.551 17.9844 109.52 17.7266 109.441 17.4766C109.379 17.2266 109.355 16.9688 109.371 16.7031C109.387 16.5781 109.41 16.4609 109.441 16.3516C109.488 16.2266 109.551 16.1172 109.629 16.0234C109.551 15.8359 109.527 15.6562 109.559 15.4844C109.574 15.2188 109.605 14.9688 109.652 14.7344C109.699 14.5 109.73 14.2656 109.746 14.0312C109.746 13.9062 109.738 13.7891 109.723 13.6797C109.707 13.5547 109.684 13.4375 109.652 13.3281L109.441 13.2578C109.348 13.2578 109.254 13.2812 109.16 13.3281C109.082 13.375 109.012 13.4297 108.949 13.4922C108.887 13.5547 108.832 13.6094 108.785 13.6562C108.738 13.6875 108.691 13.7031 108.645 13.7031C108.613 13.7031 108.574 13.7031 108.527 13.7031C108.496 13.6875 108.465 13.6797 108.434 13.6797C108.402 13.6797 108.34 13.7109 108.246 13.7734C108.168 13.8359 108.066 13.9062 107.941 13.9844C107.832 14.0469 107.723 14.1172 107.613 14.1953C107.504 14.2578 107.418 14.2969 107.355 14.3125C107.184 14.2812 107.043 14.2266 106.934 14.1484C106.84 14.0547 106.746 13.9688 106.652 13.8906C106.574 13.7969 106.488 13.7188 106.395 13.6562C106.301 13.5781 106.184 13.5469 106.043 13.5625C105.996 13.4688 105.973 13.3672 105.973 13.2578C105.957 13.1484 105.957 13.0391 105.973 12.9297V12.5547C106.082 12.3516 106.23 12.1875 106.418 12.0625C106.59 11.9219 106.777 11.8047 106.98 11.7109L107.59 11.4297C107.793 11.3359 107.98 11.2188 108.152 11.0781H108.363C108.645 11.0938 108.887 11.0391 109.09 10.9141C109.309 10.7891 109.512 10.6484 109.699 10.4922C109.887 10.3203 110.074 10.1484 110.262 9.97656C110.465 9.80469 110.684 9.67188 110.918 9.57812C111.09 9.65625 111.27 9.72656 111.457 9.78906C111.645 9.83594 111.84 9.86719 112.043 9.88281C112.246 9.88281 112.457 9.85156 112.676 9.78906C112.895 9.72656 113.066 9.60938 113.191 9.4375C113.27 9.46875 113.332 9.49219 113.379 9.50781C113.441 9.50781 113.512 9.50781 113.59 9.50781C113.824 9.52344 114.059 9.49219 114.293 9.41406C114.527 9.32031 114.754 9.21094 114.973 9.08594C115.285 9.10156 115.59 9.08594 115.887 9.03906C116.199 8.97656 116.504 8.91406 116.801 8.85156C117.113 8.78906 117.418 8.73438 117.715 8.6875C118.027 8.625 118.34 8.60156 118.652 8.61719C119.168 8.63281 119.676 8.58594 120.176 8.47656C120.676 8.36719 121.184 8.32812 121.699 8.35938C122.059 8.375 122.41 8.40625 122.754 8.45312C123.113 8.48438 123.473 8.49219 123.832 8.47656C124.035 8.57031 124.215 8.65625 124.371 8.73438C124.543 8.79688 124.754 8.8125 125.004 8.78125C125.504 9.20312 125.957 9.69531 126.363 10.2578V10.6562C126.348 11.0156 126.285 11.3672 126.176 11.7109C126.066 12.0547 125.934 12.3984 125.777 12.7422C125.637 13.0703 125.48 13.3984 125.309 13.7266C125.137 14.0391 124.973 14.3516 124.816 14.6641C123.801 15.5859 122.785 16.5 121.77 17.4062C120.754 18.3125 119.707 19.1875 118.629 20.0312C118.598 20.1875 118.551 20.3281 118.488 20.4531C118.441 20.5781 118.41 20.7109 118.395 20.8516C118.395 20.9297 118.402 20.9922 118.418 21.0391C118.527 21.0703 118.621 21.1328 118.699 21.2266C118.793 21.3047 118.824 21.4141 118.793 21.5547H119.004C119.082 21.5547 119.121 21.5859 119.121 21.6484L119.496 21.6719C120.09 21.7031 120.684 21.6875 121.277 21.625C121.871 21.5625 122.465 21.4922 123.059 21.4141C123.668 21.3359 124.27 21.2656 124.863 21.2031C125.457 21.125 126.051 21.0781 126.645 21.0625C126.785 21.0156 126.934 20.9766 127.09 20.9453C127.246 20.9141 127.387 20.8516 127.512 20.7578H127.582C127.691 20.7578 127.77 20.7891 127.816 20.8516C127.879 20.9141 127.965 20.9531 128.074 20.9688C128.152 20.9688 128.23 20.9531 128.309 20.9219C128.402 20.8906 128.496 20.8672 128.59 20.8516C128.809 20.7891 129.035 20.75 129.27 20.7344C129.52 20.7188 129.762 20.6953 129.996 20.6641C130.902 20.5859 131.801 20.5391 132.691 20.5234C133.582 20.4922 134.473 20.375 135.363 20.1719C135.441 20.2812 135.551 20.3594 135.691 20.4062C135.832 20.4375 135.98 20.4766 136.137 20.5234C136.293 20.5547 136.434 20.5938 136.559 20.6406C136.699 20.6875 136.793 20.7812 136.84 20.9219ZM135.246 21.7891C135.168 21.9141 135.074 22.0312 134.965 22.1406C134.855 22.2344 134.754 22.3359 134.66 22.4453C134.551 22.4922 134.426 22.5156 134.285 22.5156C134.16 22.5156 134.035 22.5156 133.91 22.5156C133.801 22.5 133.691 22.5 133.582 22.5156C133.488 22.5156 133.41 22.5469 133.348 22.6094C133.223 22.5781 133.129 22.5234 133.066 22.4453C133.004 22.3516 132.895 22.2969 132.738 22.2812C132.676 22.2656 132.613 22.2656 132.551 22.2812C132.316 22.0156 132.098 21.7344 131.895 21.4375C131.707 21.1406 131.527 20.8594 131.355 20.5938C131.34 20.0156 131.293 19.4297 131.215 18.8359C131.199 18.6953 131.176 18.5547 131.145 18.4141C131.113 18.2734 131.09 18.1406 131.074 18.0156C131.074 17.8594 131.082 17.7109 131.098 17.5703C131.129 17.4141 131.152 17.2734 131.168 17.1484C131.23 16.6953 131.301 16.25 131.379 15.8125C131.457 15.375 131.527 14.9297 131.59 14.4766C131.652 14.0703 131.684 13.6484 131.684 13.2109C131.684 12.7578 131.613 12.3359 131.473 11.9453L131.449 11.8281C131.48 11.7031 131.512 11.6016 131.543 11.5234C131.59 11.4297 131.621 11.3281 131.637 11.2188C131.668 11.0469 131.629 10.9219 131.52 10.8438C131.566 10.7188 131.645 10.6406 131.754 10.6094C131.863 10.5625 131.926 10.4688 131.941 10.3281C131.957 10.2656 131.957 10.2031 131.941 10.1406C132.066 10.0938 132.191 10.0547 132.316 10.0234C132.457 9.97656 132.59 9.96875 132.715 10C132.918 10.0312 133.098 10.1016 133.254 10.2109C133.41 10.3047 133.559 10.4141 133.699 10.5391C133.949 11.2891 134.051 12.0859 134.004 12.9297C133.957 13.7578 133.879 14.5938 133.77 15.4375C133.66 16.2812 133.59 17.1094 133.559 17.9219C133.527 18.7188 133.652 19.4609 133.934 20.1484L133.98 20.1719C134.059 20.1875 134.121 20.1641 134.168 20.1016C134.215 20.0234 134.277 19.9922 134.355 20.0078C134.418 20.0391 134.457 20.0547 134.473 20.0547C134.535 20.3672 134.637 20.6641 134.777 20.9453C134.918 21.2266 135.074 21.5078 135.246 21.7891ZM155.777 11.9688C155.777 12.1875 155.77 12.4062 155.754 12.625C155.738 12.8438 155.715 13.0625 155.684 13.2812C155.574 13.4375 155.465 13.5781 155.355 13.7031C155.262 13.8125 155.199 13.9531 155.168 14.125C154.996 14.25 154.801 14.4219 154.582 14.6406C154.379 14.8594 154.293 15.0781 154.324 15.2969H153.996C153.809 15.5781 153.59 15.8203 153.34 16.0234C153.09 16.2266 152.824 16.4219 152.543 16.6094L151.723 17.1484C151.457 17.3203 151.207 17.5234 150.973 17.7578C150.848 17.7734 150.746 17.7969 150.668 17.8281C150.59 17.8594 150.488 17.8672 150.363 17.8516C149.879 18.1641 149.371 18.4375 148.84 18.6719C148.324 18.9062 147.801 19.1406 147.27 19.375C146.754 19.5938 146.238 19.8281 145.723 20.0781C145.207 20.3281 144.715 20.6172 144.246 20.9453C144.199 20.9297 144.137 20.9219 144.059 20.9219C143.918 20.9219 143.777 20.9453 143.637 20.9922C143.496 21.0234 143.355 21.0391 143.215 21.0391C143.152 21.0391 143.066 21.0312 142.957 21.0156C142.863 21 142.793 20.9766 142.746 20.9453C142.668 20.8984 142.598 20.8281 142.535 20.7344C142.473 20.6406 142.426 20.5391 142.395 20.4297C142.363 20.3047 142.34 20.1875 142.324 20.0781C142.309 19.9688 142.301 19.875 142.301 19.7969C142.301 19.7031 142.309 19.6016 142.324 19.4922C142.34 19.3828 142.363 19.2812 142.395 19.1875C142.848 19.1562 143.301 19.0391 143.754 18.8359C144.223 18.6328 144.668 18.4375 145.09 18.25C145.199 18.2031 145.285 18.1484 145.348 18.0859C145.426 18.0078 145.504 17.9453 145.582 17.8984C145.66 17.8359 145.746 17.7812 145.84 17.7344C145.934 17.6875 146.051 17.6641 146.191 17.6641H146.262C147.246 17.2109 148.207 16.7188 149.145 16.1875C150.098 15.6562 151.043 15.1172 151.98 14.5703C152.027 14.4297 152.098 14.2891 152.191 14.1484C152.301 14.0078 152.402 13.875 152.496 13.75C152.59 13.6094 152.676 13.4688 152.754 13.3281C152.832 13.1875 152.871 13.0469 152.871 12.9062C152.871 12.625 152.738 12.3906 152.473 12.2031H152.379C152.191 12.2031 152.027 12.1797 151.887 12.1328C151.746 12.0703 151.613 12.0156 151.488 11.9688C151.363 11.9062 151.223 11.8594 151.066 11.8281C150.91 11.7812 150.73 11.7656 150.527 11.7812C150.449 11.7188 150.324 11.6641 150.152 11.6172C149.98 11.5703 149.84 11.5469 149.73 11.5469C149.168 11.5469 148.613 11.5859 148.066 11.6641C147.52 11.7266 146.973 11.7656 146.426 11.7812C146.285 11.8594 146.152 11.9297 146.027 11.9922C145.902 12.0547 145.754 12.0859 145.582 12.0859C145.504 12.0859 145.434 12.0859 145.371 12.0859C145.309 12.0703 145.238 12.0547 145.16 12.0391C144.863 12.1641 144.527 12.2734 144.152 12.3672C143.777 12.4453 143.402 12.5469 143.027 12.6719C142.668 12.7812 142.332 12.9219 142.02 13.0938C141.707 13.2656 141.465 13.5 141.293 13.7969C141.293 13.875 141.309 13.9453 141.34 14.0078C141.371 14.0547 141.387 14.1172 141.387 14.1953V14.2891C141.293 14.3828 141.23 14.4922 141.199 14.6172C141.168 14.7266 141.145 14.8438 141.129 14.9688C141.113 15.0781 141.09 15.1953 141.059 15.3203C141.043 15.4297 140.988 15.5391 140.895 15.6484C140.957 15.8828 140.988 16.1406 140.988 16.4219C140.988 16.7344 140.965 17.0469 140.918 17.3594C140.887 17.6719 140.871 17.9844 140.871 18.2969C140.871 18.5938 140.902 18.8594 140.965 19.0938C140.871 19.1875 140.832 19.3281 140.848 19.5156C140.863 19.7031 140.824 19.8438 140.73 19.9375C140.73 20.0625 140.762 20.1484 140.824 20.1953C140.902 20.2422 140.949 20.3203 140.965 20.4297C140.902 20.6953 140.871 20.9844 140.871 21.2969C140.871 21.75 140.918 22.2109 141.012 22.6797C141.121 23.1484 141.246 23.6094 141.387 24.0625C141.637 23.9844 141.902 23.9219 142.184 23.875C142.48 23.8125 142.762 23.7812 143.027 23.7812C143.074 23.7812 143.121 23.7891 143.168 23.8047C143.215 23.8047 143.262 23.8047 143.309 23.8047C143.34 23.9766 143.402 24.1328 143.496 24.2734C143.59 24.4141 143.676 24.5703 143.754 24.7422C143.676 24.8516 143.605 24.9375 143.543 25C143.496 25.0781 143.473 25.1797 143.473 25.3047C143.254 25.3203 143.074 25.375 142.934 25.4688C142.793 25.5781 142.637 25.6953 142.465 25.8203H142.371C142.105 25.8203 141.887 25.8672 141.715 25.9609C141.543 26.0703 141.348 26.1875 141.129 26.3125C140.941 26.2344 140.754 26.1953 140.566 26.1953C140.363 26.1953 140.16 26.2344 139.957 26.3125C139.707 26.2031 139.504 26.0312 139.348 25.7969C139.191 25.5781 139.059 25.3281 138.949 25.0469C138.84 24.7812 138.738 24.5078 138.645 24.2266C138.566 23.9453 138.473 23.6875 138.363 23.4531V23.0781C138.363 22.7188 138.332 22.375 138.27 22.0469C138.223 21.7031 138.199 21.3516 138.199 20.9922C138.199 20.8516 138.207 20.7031 138.223 20.5469C138.254 20.3906 138.301 20.2422 138.363 20.1016C138.332 19.9609 138.316 19.8281 138.316 19.7031V19.2578C138.316 18.7891 138.332 18.3203 138.363 17.8516C138.41 17.3828 138.434 16.9141 138.434 16.4453C138.434 16.1016 138.41 15.75 138.363 15.3906C138.285 15.4219 138.215 15.4531 138.152 15.4844C138.09 15.5156 138.02 15.5312 137.941 15.5312C137.863 15.5312 137.785 15.5234 137.707 15.5078C137.645 15.4922 137.582 15.4766 137.52 15.4609C137.363 15.3203 137.254 15.1484 137.191 14.9453C137.129 14.7422 137.043 14.5547 136.934 14.3828C136.934 14.0859 136.98 13.8438 137.074 13.6562C137.152 13.4531 137.254 13.2734 137.379 13.1172C137.504 12.9453 137.629 12.7812 137.754 12.625C137.895 12.4688 138.012 12.2734 138.105 12.0391H138.199C138.449 12.0391 138.699 11.9609 138.949 11.8047C139.199 11.6328 139.48 11.5469 139.793 11.5469C139.902 11.4062 140.051 11.2891 140.238 11.1953C140.426 11.0859 140.621 11 140.824 10.9375C141.043 10.875 141.254 10.8359 141.457 10.8203C141.676 10.7891 141.879 10.7734 142.066 10.7734C142.129 10.6641 142.223 10.5938 142.348 10.5625C142.473 10.5156 142.598 10.4766 142.723 10.4453C142.863 10.3984 142.988 10.3594 143.098 10.3281C143.223 10.2812 143.324 10.2031 143.402 10.0938C143.527 10.125 143.645 10.1406 143.754 10.1406C143.957 10.1406 144.152 10.1172 144.34 10.0703C144.527 10.0078 144.715 9.94531 144.902 9.88281C145.09 9.80469 145.277 9.73438 145.465 9.67188C145.668 9.60938 145.879 9.57812 146.098 9.57812C146.176 9.57812 146.254 9.58594 146.332 9.60156C146.41 9.60156 146.488 9.60156 146.566 9.60156C146.691 9.60156 146.762 9.55469 146.777 9.46094C146.809 9.36719 146.863 9.29688 146.941 9.25C146.988 9.26562 147.074 9.27344 147.199 9.27344C147.512 9.27344 147.816 9.25 148.113 9.20312C148.41 9.14062 148.715 9.10938 149.027 9.10938C149.168 9.10938 149.309 9.11719 149.449 9.13281C149.59 9.14844 149.73 9.1875 149.871 9.25C149.902 9.20312 149.934 9.16406 149.965 9.13281C149.996 9.10156 150.02 9.0625 150.035 9.01562C150.801 9.0625 151.52 9.21875 152.191 9.48438C152.879 9.75 153.59 9.98438 154.324 10.1875C154.418 10.3281 154.527 10.4531 154.652 10.5625L155.051 10.8906C155.191 11 155.324 11.1094 155.449 11.2188C155.574 11.3281 155.684 11.4609 155.777 11.6172V11.9688ZM176.73 9.92969C176.668 10.1328 176.566 10.3203 176.426 10.4922L176.027 10.9844C175.902 11.1406 175.793 11.3125 175.699 11.5C175.621 11.6719 175.598 11.875 175.629 12.1094C175.598 12.1094 175.559 12.1094 175.512 12.1094C175.465 12.0938 175.426 12.0859 175.395 12.0859C175.145 12.0859 174.949 12.1484 174.809 12.2734C174.684 12.3828 174.512 12.4766 174.293 12.5547C174.262 12.4609 174.223 12.375 174.176 12.2969C174.129 12.2031 174.059 12.1406 173.965 12.1094C173.59 12.1875 173.215 12.25 172.84 12.2969C172.465 12.3281 172.09 12.375 171.715 12.4375C171.543 12.4688 171.371 12.5156 171.199 12.5781C171.027 12.625 170.848 12.6719 170.66 12.7188C170.566 12.75 170.465 12.7656 170.355 12.7656C170.246 12.75 170.137 12.75 170.027 12.7656C169.652 12.7812 169.246 12.8125 168.809 12.8594C168.371 12.8906 167.98 13.0078 167.637 13.2109C167.48 13.1797 167.316 13.1562 167.145 13.1406C166.973 13.125 166.801 13.1172 166.629 13.1172C166.254 13.1172 165.84 13.1562 165.387 13.2344C164.949 13.2969 164.559 13.4297 164.215 13.6328C164.137 13.6016 164.051 13.5781 163.957 13.5625C163.879 13.5469 163.785 13.5391 163.676 13.5391C163.645 13.5391 163.621 13.5469 163.605 13.5625C163.59 13.5625 163.566 13.5625 163.535 13.5625C163.52 13.7031 163.535 13.8438 163.582 13.9844C163.645 14.1094 163.746 14.2109 163.887 14.2891C163.824 14.4609 163.793 14.6484 163.793 14.8516C163.793 15.1172 163.809 15.3828 163.84 15.6484C163.887 15.9141 163.91 16.1797 163.91 16.4453C163.91 16.7422 163.871 16.9766 163.793 17.1484C163.949 17.6172 164.027 18.1172 164.027 18.6484C164.027 18.8359 164.012 19.0234 163.98 19.2109C163.965 19.3828 163.957 19.5703 163.957 19.7734C163.957 19.9453 164.02 20.0859 164.145 20.1953C164.27 20.2891 164.332 20.4219 164.332 20.5938C164.332 20.6562 164.316 20.7188 164.285 20.7812C164.504 20.7344 164.715 20.6719 164.918 20.5938C165.121 20.5 165.332 20.4531 165.551 20.4531C165.676 20.4531 165.793 20.4766 165.902 20.5234C166.027 20.5703 166.137 20.6328 166.23 20.7109C166.215 20.7891 166.199 20.875 166.184 20.9688C166.184 21.0625 166.184 21.1562 166.184 21.25C166.184 21.4219 166.184 21.5859 166.184 21.7422C166.199 21.8828 166.215 22.0391 166.23 22.2109C166.105 22.4297 165.957 22.625 165.785 22.7969C165.629 22.9688 165.52 23.1875 165.457 23.4531C165.223 23.4531 165.012 23.5078 164.824 23.6172C164.652 23.7109 164.488 23.8203 164.332 23.9453C164.176 24.0547 164.02 24.1641 163.863 24.2734C163.707 24.3672 163.535 24.4141 163.348 24.4141C163.113 24.4141 162.949 24.3828 162.855 24.3203C162.762 24.2422 162.691 24.1641 162.645 24.0859C162.598 24.0078 162.551 23.9375 162.504 23.875C162.473 23.8125 162.395 23.7891 162.27 23.8047C162.238 23.6016 162.176 23.4141 162.082 23.2422C161.988 23.0547 161.887 22.875 161.777 22.7031C161.684 22.5312 161.582 22.3594 161.473 22.1875C161.379 22 161.309 21.8125 161.262 21.625C161.168 21.2188 161.129 20.7969 161.145 20.3594C161.16 19.9219 161.09 19.5 160.934 19.0938C160.965 18.875 160.988 18.6562 161.004 18.4375C161.02 18.2031 161.027 17.9766 161.027 17.7578C161.027 17.3203 161.012 16.8906 160.98 16.4688C160.965 16.0312 160.949 15.5859 160.934 15.1328C160.824 14.9922 160.754 14.8359 160.723 14.6641C160.707 14.4766 160.691 14.2969 160.676 14.125C160.629 14.0781 160.574 14.0312 160.512 13.9844C160.465 13.9375 160.434 13.875 160.418 13.7969C160.293 13.7656 160.199 13.75 160.137 13.75C159.918 13.75 159.73 13.8047 159.574 13.9141C159.434 14.0078 159.301 14.0547 159.176 14.0547C159.051 14.0547 158.934 14.0391 158.824 14.0078C158.715 13.9766 158.605 13.9609 158.496 13.9609C158.402 13.9609 158.348 13.9844 158.332 14.0312C158.332 14.0625 158.301 14.0938 158.238 14.125C158.191 14.1562 158.082 14.1875 157.91 14.2188C157.738 14.25 157.543 14.2812 157.324 14.3125C157.121 14.3281 156.918 14.3438 156.715 14.3594C156.527 14.375 156.402 14.3828 156.34 14.3828C156.09 14.3828 155.902 14.3359 155.777 14.2422C155.637 14.1328 155.473 14.0156 155.285 13.8906C155.316 13.7969 155.332 13.7344 155.332 13.7031C155.332 13.5469 155.285 13.4219 155.191 13.3281C155.098 13.2188 155.051 13.125 155.051 13.0469C155.051 12.875 155.121 12.7422 155.262 12.6484C155.387 12.5547 155.457 12.4062 155.473 12.2031C155.832 12.0469 156.199 11.9297 156.574 11.8516C156.949 11.7734 157.332 11.7109 157.723 11.6641C158.113 11.6172 158.496 11.5625 158.871 11.5C159.262 11.4375 159.645 11.3359 160.02 11.1953C160.129 11.2109 160.23 11.2266 160.324 11.2422C160.434 11.2422 160.543 11.2422 160.652 11.2422C161.121 11.2422 161.582 11.1953 162.035 11.1016C162.504 10.9922 162.98 10.9375 163.465 10.9375C163.59 10.9375 163.715 10.9453 163.84 10.9609C163.965 10.9766 164.09 11 164.215 11.0312C164.84 10.9375 165.457 10.8359 166.066 10.7266C166.691 10.6172 167.332 10.5234 167.988 10.4453C168.301 10.4141 168.605 10.3906 168.902 10.375C169.215 10.3438 169.527 10.3047 169.84 10.2578C169.949 10.2422 170.027 10.2188 170.074 10.1875C170.137 10.1406 170.168 10.0547 170.168 9.92969C170.309 9.99219 170.465 10.0234 170.637 10.0234C170.902 10.0234 171.16 9.97656 171.41 9.88281C171.66 9.78906 171.918 9.74219 172.184 9.74219C172.246 9.74219 172.301 9.75 172.348 9.76562C172.395 9.76562 172.441 9.76562 172.488 9.76562C172.598 9.76562 172.652 9.71875 172.652 9.625C172.668 9.51562 172.746 9.44531 172.887 9.41406C172.996 9.38281 173.152 9.35938 173.355 9.34375C173.559 9.32812 173.77 9.3125 173.988 9.29688C174.223 9.26562 174.434 9.23438 174.621 9.20312C174.824 9.15625 174.973 9.09375 175.066 9.01562L175.23 8.75781C175.512 8.77344 175.715 8.89844 175.84 9.13281C175.98 9.35156 176.059 9.59375 176.074 9.85938C176.137 9.92188 176.223 9.95312 176.332 9.95312C176.457 9.9375 176.566 9.92969 176.66 9.92969H176.73Z" fill="#772121"/>
</svg>
